<?xml version="1.0" standalone="no"?>
<!DOCTYPE svg PUBLIC "-//W3C//DTD SVG 1.1//EN" "http://www.w3.org/Graphics/SVG/1.1/DTD/svg11.dtd" >
<!--
2013-9-30: Created.
-->
<svg>
<metadata>
Created by iconfont
</metadata>
<defs>

<font id="iconfont" horiz-adv-x="1024" >
  <font-face
    font-family="iconfont"
    font-weight="500"
    font-stretch="normal"
    units-per-em="1024"
    ascent="896"
    descent="-128"
  />
    <missing-glyph />
    
    <glyph glyph-name="daodianditu" unicode="&#60236;" d="M761.6 697.6c-137.6 137.6-361.6 137.6-499.2 0-137.6-137.6-137.6-358.4 0-496l227.2-224c12.8-12.8 32-12.8 44.8 0l22.4 22.4 211.2 211.2c131.2 137.6 128 352-6.4 486.4z m-160-742.4l-22.4-22.4c-38.4-38.4-99.2-38.4-134.4 0l-227.2 224c-163.2 163.2-163.2 425.6 0 585.6s425.6 163.2 588.8 0c163.2-163.2 163.2-425.6 0-585.6l-9.6-9.6-195.2-192z m-89.6 332.8c-105.6 0-192 86.4-192 192s86.4 192 192 192 192-86.4 192-192-86.4-192-192-192z m0 64c70.4 0 128 57.6 128 128s-57.6 128-128 128-128-57.6-128-128 57.6-128 128-128z"  horiz-adv-x="1024" />

    
    <glyph glyph-name="caiwudaodan" unicode="&#60237;" d="M896 422.4v233.6c0 54.4-41.6 96-96 96h-640c-54.4 0-96-41.6-96-96v-448c0-54.4 41.6-96 96-96h425.6c41.6-57.6 108.8-96 182.4-96 124.8 0 224 99.2 224 224 0 76.8-38.4 144-96 182.4z m-342.4-246.4h-393.6c-19.2 0-32 12.8-32 32v448c0 19.2 12.8 32 32 32h640c19.2 0 32-12.8 32-32v-201.6h-3.2c-6.4 3.2-38.4 9.6-60.8 9.6-124.8 0-224-99.2-224-224 0-9.6 3.2-35.2 3.2-35.2 0-9.6 3.2-19.2 6.4-28.8 0 3.2 0 0 0 0z m214.4-96c-67.2 0-121.6 38.4-147.2 96-3.2 9.6-9.6 28.8-9.6 32-3.2 12.8-3.2 22.4-3.2 32 0 89.6 70.4 160 160 160 9.6 0 38.4 0 60.8-12.8 57.6-25.6 96-80 96-147.2 3.2-89.6-67.2-160-156.8-160zM576 400c0 19.2-12.8 32-32 32h-64v25.6l80 80c12.8 12.8 12.8 32 0 44.8-12.8 12.8-32 12.8-44.8 0l-67.2-67.2-67.2 67.2c-12.8 12.8-32 12.8-44.8 0-12.8-12.8-12.8-32 0-44.8l80-80v-25.6h-64c-19.2 0-32-12.8-32-32s12.8-32 32-32h64v-64c0-19.2 12.8-32 32-32s32 12.8 32 32v64h64c19.2 0 32 12.8 32 32zM822.4 310.4l-67.2-67.2-48 44.8c-12.8 12.8-32 12.8-44.8 0-12.8-12.8-12.8-32 0-44.8l67.2-67.2c6.4-6.4 16-9.6 22.4-9.6s16 3.2 22.4 9.6l89.6 89.6c12.8 12.8 12.8 32 0 44.8-9.6 12.8-32 12.8-41.6 0z"  horiz-adv-x="1024" />

    
    <glyph glyph-name="caiwutuifei" unicode="&#60238;" d="M544 432h-64v25.6l80 80c12.8 12.8 12.8 32 0 44.8-12.8 12.8-32 12.8-44.8 0l-67.2-67.2-67.2 67.2c-12.8 12.8-32 12.8-44.8 0-12.8-12.8-12.8-32 0-44.8l80-80v-25.6h-64c-19.2 0-32-12.8-32-32s12.8-32 32-32h64v-64c0-19.2 12.8-32 32-32s32 12.8 32 32v64h64c19.2 0 32 12.8 32 32s-12.8 32-32 32zM896 422.4v233.6c0 54.4-41.6 96-96 96h-640c-54.4 0-96-41.6-96-96v-448c0-54.4 41.6-96 96-96h425.6c41.6-57.6 108.8-96 182.4-96 124.8 0 224 99.2 224 224 0 76.8-38.4 144-96 182.4z m-342.4-243.2l-393.6-3.2c-19.2 0-32 12.8-32 32v448c0 19.2 12.8 32 32 32h640c19.2 0 32-12.8 32-32v-201.6h-3.2c-6.4 3.2-32 9.6-60.8 9.6-124.8 0-224-99.2-224-224 0-9.6 6.4-51.2 9.6-60.8z m214.4-99.2c-67.2 0-121.6 38.4-147.2 96-3.2 9.6-12.8 25.6-12.8 64 0 89.6 70.4 160 160 160 28.8 0 51.2-6.4 60.8-12.8 57.6-25.6 96-80 96-147.2 3.2-89.6-67.2-160-156.8-160zM832 272h-128c-19.2 0-32-12.8-32-32s12.8-32 32-32h128c19.2 0 32 12.8 32 32s-12.8 32-32 32z"  horiz-adv-x="1024" />

    
    <glyph glyph-name="dianhuaguaji" unicode="&#60239;" d="M224 195.2v-115.2h576v115.2l-204.8 204.8h-166.4l-204.8-204.8z m192 268.8h192c9.6 0 16-3.2 22.4-9.6l224-224c6.4-6.4 9.6-12.8 9.6-22.4v-160c0-19.2-12.8-32-32-32h-640c-19.2 0-32 12.8-32 32v160c0 9.6 3.2 16 9.6 22.4l224 224c6.4 6.4 12.8 9.6 22.4 9.6z m-268.8-51.2c-22.4-3.2-41.6 6.4-54.4 22.4-44.8 64-22.4 176 44.8 220.8 124.8 86.4 310.4 112 470.4 89.6 124.8-19.2 198.4-44.8 278.4-102.4 9.6-6.4 16-9.6 22.4-16 57.6-51.2 67.2-137.6 22.4-204.8-12.8-16-32-25.6-54.4-22.4l-163.2 28.8c-25.6 3.2-28.8 19.2-35.2 41.6-3.2 12.8-3.2 22.4-3.2 38.4v19.2c-28.8 6.4-80 16-128 19.2-73.6 6.4-140.8 0-188.8-19.2-3.2-48-12.8-86.4-44.8-89.6l-166.4-25.6z m144 144c0 12.8 6.4 22.4 19.2 28.8 108.8 54.4 339.2 38.4 409.6 0 9.6-6.4 16-16 16-28.8v-64l144-25.6c22.4 38.4 16 89.6-12.8 108.8-6.4 6.4-9.6 9.6-19.2 16-73.6 51.2-137.6 73.6-252.8 89.6-144 19.2-332.8-9.6-425.6-80-38.4-38.4-51.2-86.4-28.8-121.6l147.2 22.4c0 3.2 3.2 35.2 3.2 54.4z"  horiz-adv-x="1024" />

    
    <glyph glyph-name="quanping1" unicode="&#60240;" d="M704 32v96c0 54.4 41.6 96 96 96h96c19.2 0 32 12.8 32 32s-12.8 32-32 32h-96c-89.6 0-160-70.4-160-160v-96c0-19.2 12.8-32 32-32s32 12.8 32 32z m-64 704v-96c0-89.6 70.4-160 160-160h96c19.2 0 32 12.8 32 32s-12.8 32-32 32h-96c-54.4 0-96 41.6-96 96v96c0 19.2-12.8 32-32 32s-32-12.8-32-32z m-256-704v96c0 89.6-70.4 160-160 160h-96c-19.2 0-32-12.8-32-32s12.8-32 32-32h96c54.4 0 96-41.6 96-96v-96c0-19.2 12.8-32 32-32s32 12.8 32 32z m-64 704v-96c0-54.4-41.6-96-96-96h-96c-19.2 0-32-12.8-32-32s12.8-32 32-32h96c89.6 0 160 70.4 160 160v96c0 19.2-12.8 32-32 32s-32-12.8-32-32z"  horiz-adv-x="1024" />

    
    <glyph glyph-name="manyidu" unicode="&#60241;" d="M345.6 214.4c3.2 3.2 3.2 6.4 6.4 9.6 41.6 41.6 99.2 67.2 160 67.2s118.4-22.4 160-67.2l9.6-9.6c12.8-19.2 6.4-32-6.4-44.8-12.8-12.8-32-9.6-44.8 3.2l-6.4 6.4c-28.8 28.8-70.4 44.8-112 44.8s-83.2-16-112-48l-6.4-6.4c-12.8-12.8-32-12.8-44.8-3.2-12.8 12.8-16 35.2-3.2 48zM352 544c19.2 0 32-12.8 32-32v-32c0-19.2-12.8-32-32-32s-32 12.8-32 32v32c0 19.2 12.8 32 32 32zM672 544c19.2 0 32-12.8 32-32v-32c0-19.2-12.8-32-32-32s-32 12.8-32 32v32c0 19.2 12.8 32 32 32zM512-64c-246.4 0-448 201.6-448 448s201.6 448 448 448 448-201.6 448-448-201.6-448-448-448z m0 64c211.2 0 384 172.8 384 384s-172.8 384-384 384-384-172.8-384-384 172.8-384 384-384z"  horiz-adv-x="1024" />

    
    <glyph glyph-name="shuaxin2" unicode="&#60242;" d="M950.4 278.4c-6.4 6.4-12.8 9.6-22.4 9.6h-224c-19.2 0-32-12.8-32-32s12.8-32 32-32h153.6l-80-80c-70.4-70.4-166.4-112-268.8-112-156.8 0-294.4 92.8-352 236.8-6.4 16-25.6 25.6-41.6 16-16-9.6-25.6-25.6-16-41.6 67.2-166.4 230.4-275.2 409.6-275.2 121.6 0 233.6 48 316.8 131.2l70.4 73.6v-140.8c0-19.2 12.8-32 32-32s32 12.8 32 32v224c0 9.6-3.2 16-9.6 22.4zM320 480c19.2 0 32 12.8 32 32s-12.8 32-32 32h-153.6l80 80c70.4 70.4 166.4 112 268.8 112 156.8 0 294.4-92.8 352-236.8 6.4-16 25.6-25.6 41.6-16 16 6.4 25.6 25.6 16 41.6-67.2 166.4-227.2 275.2-409.6 275.2-121.6 0-233.6-48-316.8-131.2l-70.4-73.6v140.8c0 19.2-12.8 32-32 32s-32-12.8-32-32v-224c0-9.6 3.2-16 9.6-22.4 6.4-6.4 12.8-9.6 22.4-9.6h224z"  horiz-adv-x="1024" />

    
    <glyph glyph-name="zhichi" unicode="&#60243;" d="M259.2 368h-99.2c-19.2 0-32-12.8-32-32v-288c0-19.2 16-32 32-32h96l3.2 352z m12.8 64l217.6 368c6.4 9.6 16 16 28.8 16 70.4 0 128-57.6 128-128v-160h217.6c54.4 0 96-41.6 96-96v-12.8l-48-384c-6.4-48-48-83.2-96-83.2h-656c-54.4 0-96 41.6-96 96v288c0 54.4 44.8 96 96 96h112z m342.4 32c-19.2 0-32 12.8-32 32v192c0 28.8-19.2 54.4-48 60.8l-211.2-358.4v-374.4h492.8c16 0 28.8 12.8 32 28.8l48 384v3.2c0 19.2-16 32-32 32h-249.6z"  horiz-adv-x="1024" />

    
    <glyph glyph-name="tupiancaijian" unicode="&#60244;" d="M928 144h-96v448c0 54.4-41.6 96-96 96h-480v128c0 19.2-12.8 32-32 32s-32-12.8-32-32v-128h-96c-19.2 0-32-12.8-32-32s12.8-32 32-32h96v-448c0-54.4 41.6-96 96-96h480v-128c0-19.2 12.8-32 32-32s32 12.8 32 32v128h96c19.2 0 32 12.8 32 32s-12.8 32-32 32z m-640 0c-19.2 0-32 12.8-32 32v448h480c19.2 0 32-12.8 32-32v-448h-480z"  horiz-adv-x="1024" />

    
    <glyph glyph-name="xihuan" unicode="&#60245;" d="M512 678.4l44.8 44.8c99.2 102.4 262.4 102.4 361.6 0 99.2-102.4 99.2-265.6 0-368l-361.6-368c-12.8-12.8-28.8-19.2-44.8-19.2s-32 6.4-44.8 19.2l-361.6 368c-99.2 102.4-99.2 265.6 0 368 99.2 102.4 262.4 102.4 361.6 0l44.8-44.8z m361.6-278.4c73.6 76.8 73.6 198.4 0 275.2a185.6 185.6 0 0 1-268.8 0l-70.4-67.2c-12.8-12.8-32-12.8-44.8 0l-67.2 70.4a185.6 185.6 0 0 1-268.8 0c-73.6-76.8-73.6-198.4 0-275.2l358.4-371.2 361.6 368z"  horiz-adv-x="1024" />

    
    <glyph glyph-name="bofangluyin" unicode="&#60246;" d="M512-64C265.6-64 64 137.6 64 384S265.6 832 512 832s448-201.6 448-448-201.6-448-448-448z m0 64c211.2 0 384 172.8 384 384S723.2 768 512 768 128 595.2 128 384s172.8-384 384-384z m-76.8 233.6l236.8 137.6-236.8 137.6v-275.2z m-16 358.4l332.8-195.2c22.4-12.8 22.4-41.6 0-54.4l-332.8-192c-22.4-12.8-48 3.2-48 28.8l-3.2 387.2c3.2 22.4 28.8 38.4 51.2 25.6z"  horiz-adv-x="1024" />

    
    <glyph glyph-name="bangzhuzhongxin" unicode="&#60247;" d="M512-64C265.6-64 64 137.6 64 384S265.6 832 512 832s448-201.6 448-448-201.6-448-448-448z m0 64c211.2 0 384 172.8 384 384S723.2 768 512 768 128 595.2 128 384s172.8-384 384-384z m0 160c-19.2 0-32 12.8-32 32s12.8 32 32 32 32-12.8 32-32-12.8-32-32-32z m12.8 131.2c-16-6.4-35.2 0-41.6 12.8s0 35.2 12.8 41.6c86.4 44.8 140.8 89.6 140.8 131.2 0 51.2-44.8 96-99.2 96-38.4 0-73.6-22.4-86.4-57.6 0-3.2-3.2-9.6-3.2-16-3.2-16-19.2-28.8-38.4-25.6-16 3.2-28.8 19.2-25.6 38.4 3.2 9.6 6.4 22.4 9.6 32 25.6 57.6 83.2 96 147.2 96 89.6 0 163.2-70.4 163.2-160 0-76.8-67.2-134.4-179.2-188.8z"  horiz-adv-x="1024" />

    
    <glyph glyph-name="bianji3" unicode="&#60248;" d="M867.2 665.6l-89.6 89.6c-38.4 38.4-96 38.4-134.4 0l-44.8-44.8L560 672 105.6 217.6c-6.4-6.4-9.6-12.8-9.6-22.4v-179.2c0-16 12.8-32 32-32h179.2c9.6 0 16 3.2 22.4 9.6L784 448l38.4 38.4 44.8 44.8c38.4 38.4 38.4 99.2 0 134.4z m-672-448L598.4 620.8l134.4-134.4-403.2-403.2-134.4 134.4zM160 48v115.2l115.2-115.2H160zM822.4 576l-44.8-44.8-134.4 134.4 44.8 44.8c12.8 12.8 32 12.8 44.8 0l89.6-89.6c12.8-12.8 12.8-32 0-44.8z"  horiz-adv-x="1024" />

    
    <glyph glyph-name="buzhichi" unicode="&#60249;" d="M259.2 752H160c-19.2 0-32-12.8-32-32v-288c0-19.2 16-32 32-32h96v352zM160 336c-54.4 0-96 41.6-96 96v288c0 54.4 44.8 96 96 96h652.8c48 0 89.6-35.2 96-83.2l48-384v-12.8c0-54.4-44.8-96-96-96h-217.6v-160c0-70.4-57.6-128-128-128-12.8 0-22.4 6.4-28.8 16L272 336H160z m704-32c19.2 0 32 12.8 32 32v3.2l-48 384c-3.2 16-16 28.8-32 28.8H323.2v-374.4l211.2-358.4c28.8 6.4 48 32 48 60.8v192c0 19.2 16 32 32 32H864z"  horiz-adv-x="1024" />

    
    <glyph glyph-name="caiwuchazhang" unicode="&#60250;" d="M160 560c-19.2 0-32-12.8-32-32v-416c0-19.2 12.8-32 32-32h608c19.2 0 32 12.8 32 32v416c0 19.2-12.8 32-32 32H160z m0 64h608c54.4 0 96-41.6 96-96v-416c0-54.4-41.6-96-96-96H160c-54.4 0-96 41.6-96 96v416c0 54.4 41.6 96 96 96z m96 64c-19.2 0-32 12.8-32 32s12.8 32 32 32h640c54.4 0 96-41.6 96-96v-480c0-19.2-12.8-32-32-32s-32 12.8-32 32v480c0 19.2-12.8 32-32 32H256z m160-358.4l-80 80c-12.8 12.8-12.8 32 0 44.8 12.8 12.8 32 12.8 44.8 0l67.2-67.2 67.2 67.2c12.8 12.8 32 12.8 44.8 0 12.8-12.8 12.8-32 0-44.8L480 329.6v-25.6h64c19.2 0 32-12.8 32-32s-12.8-32-32-32h-64v-64c0-19.2-12.8-32-32-32s-32 12.8-32 32v64h-64c-19.2 0-32 12.8-32 32s12.8 32 32 32h64v25.6z"  horiz-adv-x="1024" />

    
    <glyph glyph-name="dianhuaweijie" unicode="&#60251;" d="M774.4 227.2c-12.8 9.6-32 9.6-41.6-3.2l-73.6-73.6c-9.6-9.6-25.6-12.8-38.4-6.4-70.4 38.4-134.4 86.4-188.8 140.8-54.4 54.4-102.4 118.4-140.8 188.8-6.4 12.8-3.2 28.8 6.4 38.4l73.6 73.6c12.8 12.8 12.8 28.8 3.2 41.6l-102.4 128s0 3.2-3.2 3.2c-12.8 12.8-32 12.8-44.8 0L137.6 672c-41.6-41.6 64-243.2 249.6-428.8s387.2-291.2 428.8-249.6l86.4 86.4 3.2 3.2c9.6 12.8 9.6 35.2-6.4 44.8l-124.8 99.2zM707.2 617.6l67.2 67.2c12.8 12.8 32 12.8 44.8 0 12.8-12.8 12.8-32 0-44.8l-67.2-67.2 67.2-67.2c12.8-12.8 12.8-32 0-44.8s-32-12.8-44.8 0l-67.2 67.2-67.2-67.2c-12.8-12.8-32-12.8-44.8 0s-12.8 32 0 44.8l67.2 67.2L595.2 640c-12.8 12.8-12.8 32 0 44.8 12.8 12.8 32 12.8 44.8 0l67.2-67.2z m-22.4-348.8c35.2 35.2 89.6 38.4 128 6.4l124.8-99.2c41.6-32 48-92.8 16-134.4-3.2-3.2-3.2-6.4-6.4-6.4L864-51.2c-83.2-83.2-307.2 35.2-521.6 249.6S9.6 636.8 92.8 716.8l86.4 86.4c38.4 38.4 99.2 38.4 134.4 0 3.2-3.2 6.4-6.4 6.4-9.6l99.2-124.8c32-38.4 28.8-92.8-6.4-128l-54.4-54.4c35.2-57.6 73.6-108.8 118.4-153.6s96-83.2 153.6-118.4l54.4 54.4z"  horiz-adv-x="1024" />

    
    <glyph glyph-name="dayinji" unicode="&#60252;" d="M832 512h-32V768c0 35.2-28.8 64-64 64H288c-35.2 0-64-28.8-64-64v-256H192c-54.4 0-96-41.6-96-96v-192c0-54.4 41.6-96 96-96h32v-128c0-35.2 28.8-64 64-64h448c35.2 0 64 28.8 64 64v128h32c54.4 0 96 41.6 96 96v192c0 54.4-41.6 96-96 96zM288 768h448v-256H288V768z m448-768H288v256h448v-256z m128 224c0-19.2-12.8-32-32-32h-32v64c0 35.2-28.8 64-64 64H288c-35.2 0-64-28.8-64-64v-64H192c-19.2 0-32 12.8-32 32v192c0 19.2 12.8 32 32 32h640c19.2 0 32-12.8 32-32v-192z"  horiz-adv-x="1024" />

    
    <glyph glyph-name="dianhuazhengzaibohao" unicode="&#60253;" d="M771.2 233.6c-12.8 9.6-32 9.6-41.6-3.2L656 160c-9.6-9.6-25.6-12.8-38.4-6.4-70.4 38.4-134.4 86.4-188.8 140.8-54.4 54.4-102.4 118.4-140.8 188.8-6.4 12.8-3.2 28.8 6.4 38.4l73.6 73.6c12.8 12.8 12.8 28.8 3.2 41.6L268.8 761.6s0 3.2-3.2 3.2c-12.8 12.8-32 12.8-44.8 0L134.4 678.4c-41.6-41.6 64-240 249.6-428.8s387.2-291.2 428.8-249.6l86.4 86.4 3.2 3.2c9.6 12.8 9.6 35.2-6.4 44.8l-124.8 99.2z m-86.4 44.8c35.2 35.2 89.6 38.4 128 6.4l124.8-99.2c41.6-32 48-92.8 16-134.4-3.2-3.2-3.2-6.4-6.4-6.4l-86.4-86.4c-83.2-83.2-307.2 35.2-521.6 249.6S9.6 643.2 89.6 726.4l86.4 86.4c38.4 38.4 99.2 38.4 134.4 0l6.4-6.4L416 681.6c32-38.4 28.8-92.8-6.4-128l-54.4-54.4c35.2-57.6 73.6-108.8 118.4-153.6s96-83.2 153.6-118.4l57.6 51.2zM572.8 710.4c-19.2 0-32 12.8-32 32s12.8 32 32 32c176 0 320-144 320-320 0-19.2-12.8-32-32-32s-32 12.8-32 32c0 140.8-115.2 256-256 256z m0-128c-19.2 0-32 12.8-32 32s12.8 32 32 32c105.6 0 192-86.4 192-192 0-19.2-12.8-32-32-32s-32 12.8-32 32c0 70.4-57.6 128-128 128z"  horiz-adv-x="1024" />

    
    <glyph glyph-name="dianhua1" unicode="&#60254;" d="M771.2 233.6c-12.8 9.6-32 9.6-41.6-3.2L656 160c-9.6-9.6-25.6-12.8-38.4-6.4-70.4 38.4-134.4 86.4-188.8 140.8s-102.4 118.4-140.8 188.8c-6.4 12.8-3.2 28.8 6.4 38.4l73.6 73.6c12.8 12.8 12.8 28.8 3.2 41.6L268.8 761.6s0 3.2-3.2 3.2c-12.8 12.8-32 12.8-44.8 0L134.4 678.4c-41.6-41.6 64-240 249.6-428.8s387.2-291.2 428.8-249.6l86.4 86.4 3.2 3.2c9.6 12.8 9.6 35.2-6.4 44.8l-124.8 99.2z m-86.4 44.8c35.2 35.2 89.6 38.4 128 6.4l124.8-99.2c41.6-32 48-92.8 16-134.4-3.2-3.2-3.2-6.4-6.4-6.4l-86.4-86.4c-83.2-83.2-307.2 35.2-521.6 249.6S9.6 643.2 89.6 726.4l86.4 86.4c38.4 38.4 99.2 38.4 134.4 0l6.4-6.4L416 681.6c32-38.4 28.8-92.8-6.4-128l-54.4-54.4c35.2-57.6 73.6-108.8 118.4-153.6 44.8-44.8 96-83.2 153.6-118.4l57.6 51.2z"  horiz-adv-x="1024" />

    
    <glyph glyph-name="dianhuahuru" unicode="&#60255;" d="M771.2 233.6c-12.8 9.6-32 9.6-41.6-3.2L656 160c-9.6-9.6-25.6-12.8-38.4-6.4-70.4 38.4-134.4 86.4-188.8 140.8-54.4 54.4-102.4 118.4-140.8 188.8-6.4 12.8-3.2 28.8 6.4 38.4l73.6 73.6c12.8 12.8 12.8 28.8 3.2 41.6L268.8 761.6s0 3.2-3.2 3.2c-12.8 12.8-32 12.8-44.8 0L134.4 678.4c-41.6-41.6 64-240 249.6-428.8s387.2-291.2 428.8-249.6l86.4 86.4 3.2 3.2c9.6 12.8 9.6 35.2-6.4 44.8l-124.8 99.2zM825.6 672c3.2-6.4 3.2-16 3.2-22.4v-160c0-19.2-12.8-32-32-32s-32 12.8-32 32V601.6l-134.4-134.4c-9.6-9.6-28.8-9.6-41.6 3.2s-12.8 32-3.2 41.6l134.4 134.4h-115.2c-19.2 0-32 12.8-32 32s12.8 32 32 32h160c9.6 0 16 0 22.4-3.2 9.6 0 19.2-3.2 25.6-9.6s12.8-19.2 12.8-25.6z m-140.8-393.6c35.2 35.2 89.6 38.4 128 6.4l124.8-99.2c41.6-32 48-92.8 16-134.4-3.2-3.2-3.2-6.4-6.4-6.4l-86.4-86.4c-83.2-83.2-307.2 35.2-521.6 249.6S9.6 643.2 89.6 726.4l86.4 86.4c38.4 38.4 99.2 38.4 134.4 0l6.4-6.4L416 681.6c32-38.4 28.8-92.8-6.4-128l-54.4-54.4c35.2-57.6 73.6-108.8 118.4-153.6s96-83.2 153.6-118.4l57.6 51.2z"  horiz-adv-x="1024" />

    
    <glyph glyph-name="dianhuazhengzaibohao1" unicode="&#60256;" d="M771.2 233.6c-12.8 9.6-32 9.6-41.6-3.2L656 160c-9.6-9.6-25.6-12.8-38.4-6.4-70.4 38.4-134.4 86.4-188.8 140.8s-102.4 118.4-140.8 188.8c-6.4 12.8-3.2 28.8 6.4 38.4l73.6 73.6c12.8 12.8 12.8 28.8 3.2 41.6L268.8 761.6s0 3.2-3.2 3.2c-12.8 12.8-32 12.8-44.8 0L134.4 678.4c-41.6-41.6 64-240 249.6-428.8s387.2-291.2 428.8-249.6l86.4 86.4 3.2 3.2c9.6 12.8 9.6 35.2-6.4 44.8l-124.8 99.2z m-86.4 44.8c35.2 35.2 89.6 38.4 128 6.4l124.8-99.2c41.6-32 48-92.8 16-134.4-3.2-3.2-3.2-6.4-6.4-6.4l-86.4-86.4c-83.2-83.2-307.2 35.2-521.6 249.6S9.6 643.2 89.6 726.4l86.4 86.4c38.4 38.4 99.2 38.4 134.4 0l6.4-6.4L416 681.6c32-38.4 28.8-92.8-6.4-128l-54.4-54.4c35.2-57.6 73.6-108.8 118.4-153.6 44.8-44.8 96-83.2 153.6-118.4l57.6 51.2z"  horiz-adv-x="1024" />

    
    <glyph glyph-name="dianhuajinbo" unicode="&#60257;" d="M275.2 320c12.8 9.6 16 32 3.2 44.8-121.6 150.4-176 284.8-144 313.6l86.4 86.4c12.8 12.8 32 12.8 44.8 0l3.2-3.2 99.2-124.8c9.6-12.8 9.6-32-3.2-41.6l-73.6-73.6c-6.4-9.6-9.6-25.6-3.2-38.4 12.8-22.4 25.6-41.6 38.4-60.8 9.6-16 28.8-19.2 44.8-9.6 16 9.6 19.2 28.8 9.6 44.8-6.4 12.8-16 22.4-22.4 35.2l54.4 54.4c35.2 35.2 38.4 89.6 6.4 128l-99.2 128c-3.2 3.2-6.4 3.2-9.6 6.4-38.4 38.4-99.2 38.4-134.4 0L89.6 726.4c-67.2-67.2-3.2-224 140.8-400 12.8-16 32-19.2 44.8-6.4zM937.6 182.4l-124.8 99.2c-38.4 32-92.8 28.8-128-6.4l-54.4-54.4c-54.4 32-105.6 73.6-150.4 115.2l316.8 316.8c12.8 12.8 12.8 32 0 44.8-12.8 12.8-32 12.8-44.8 0l-614.4-608c-12.8-12.8-12.8-32 0-44.8s32-12.8 44.8 0l160 160c211.2-211.2 435.2-329.6 518.4-246.4l86.4 86.4 6.4 6.4c32 38.4 25.6 99.2-16 131.2z m-35.2-92.8c0-3.2-3.2-3.2 0 0L816 0c-41.6-41.6-240 60.8-428.8 246.4l44.8 44.8c54.4-54.4 115.2-99.2 185.6-137.6 12.8-6.4 28.8-3.2 38.4 6.4l73.6 73.6c12.8 12.8 28.8 12.8 41.6 3.2l124.8-99.2c16-16 16-35.2 6.4-48z"  horiz-adv-x="1024" />

    
    <glyph glyph-name="gengduo" unicode="&#60258;" d="M224 736c-19.2 0-32-12.8-32-32v-160c0-19.2 12.8-32 32-32h160c19.2 0 32 12.8 32 32V704c0 19.2-12.8 32-32 32H224z m0 64h160c54.4 0 96-41.6 96-96v-160c0-54.4-41.6-96-96-96H224c-54.4 0-96 41.6-96 96V704c0 54.4 41.6 96 96 96z m0-480c-19.2 0-32-12.8-32-32v-160c0-19.2 12.8-32 32-32h160c19.2 0 32 12.8 32 32v160c0 19.2-12.8 32-32 32H224z m0 64h160c54.4 0 96-41.6 96-96v-160c0-54.4-41.6-96-96-96H224c-54.4 0-96 41.6-96 96v160c0 54.4 41.6 96 96 96zM640 736c-19.2 0-32-12.8-32-32v-160c0-19.2 12.8-32 32-32h160c19.2 0 32 12.8 32 32V704c0 19.2-12.8 32-32 32h-160z m0 64h160c54.4 0 96-41.6 96-96v-160c0-54.4-41.6-96-96-96h-160c-54.4 0-96 41.6-96 96V704c0 54.4 41.6 96 96 96z m0-480c-19.2 0-32-12.8-32-32v-160c0-19.2 12.8-32 32-32h160c19.2 0 32 12.8 32 32v160c0 19.2-12.8 32-32 32h-160z m0 64h160c54.4 0 96-41.6 96-96v-160c0-54.4-41.6-96-96-96h-160c-54.4 0-96 41.6-96 96v160c0 54.4 41.6 96 96 96z"  horiz-adv-x="1024" />

    
    <glyph glyph-name="duanxinyidu" unicode="&#60259;" d="M931.2 614.4c-9.6 9.6-22.4 9.6-35.2 6.4V672c0 54.4-41.6 96-96 96H224C169.6 768 128 726.4 128 672v-54.4c-12.8 6.4-25.6 3.2-35.2-6.4-19.2-16-28.8-41.6-28.8-67.2v-448c0-54.4 41.6-96 96-96h704c54.4 0 96 41.6 96 96V544c0 25.6-9.6 51.2-28.8 70.4zM441.6 217.6c38.4-38.4 99.2-38.4 134.4 0l57.6 57.6 217.6-208H172.8l211.2 211.2 57.6-60.8z m240 102.4l214.4 214.4v-422.4L681.6 320zM224 704h576c19.2 0 32-12.8 32-32v-112l-297.6-297.6c-12.8-12.8-32-12.8-44.8 0L384 364.8l-192 192V672c0 19.2 12.8 32 32 32z m115.2-384L128 108.8V531.2l211.2-211.2z"  horiz-adv-x="1024" />

    
    <glyph glyph-name="guochengfenxi" unicode="&#60260;" d="M374.4 329.6c-9.6 0-16 3.2-22.4 9.6l-70.4 67.2-160-153.6c-12.8-12.8-32-12.8-44.8 0s-12.8 32 0 44.8l185.6 176c3.2 3.2 9.6 6.4 19.2 6.4s16-3.2 22.4-9.6l70.4-67.2 160 153.6c6.4 6.4 16 9.6 22.4 9.6 9.6 0 16-3.2 22.4-9.6l70.4-67.2 160 153.6c6.4 6.4 16 9.6 22.4 9.6 9.6 0 16-3.2 22.4-9.6l92.8-89.6c12.8-12.8 12.8-32 0-44.8-12.8-12.8-32-12.8-44.8 0L832 576l-160-153.6c-6.4-6.4-16-9.6-22.4-9.6s-16 3.2-22.4 9.6l-70.4 67.2-160-153.6c-6.4-3.2-16-6.4-22.4-6.4zM96 128h832c19.2 0 32-12.8 32-32s-12.8-32-32-32H96c-19.2 0-32 12.8-32 32s12.8 32 32 32z"  horiz-adv-x="1024" />

    
    <glyph glyph-name="huiyuanbiaoqian" unicode="&#60261;" d="M748.8 396.8c12.8 12.8 12.8 32 0 44.8l-272 272c-12.8 12.8-32 12.8-44.8 0L99.2 384l64-252.8 252.8-64 332.8 329.6zM521.6 758.4l272-272c38.4-38.4 38.4-99.2 0-134.4L448 6.4c-6.4-6.4-19.2-9.6-32-9.6l-288 73.6c-12.8 3.2-19.2 12.8-22.4 22.4L32 384c-3.2 9.6 0 22.4 9.6 32L387.2 758.4c35.2 38.4 96 38.4 134.4 0z m121.6-44.8c-12.8 12.8-12.8 32 0 44.8s32 12.8 44.8 0l272-272c38.4-38.4 38.4-99.2 0-134.4L598.4-9.6c-12.8-12.8-32-12.8-44.8 0-12.8 12.8-12.8 32 0 44.8l361.6 361.6c12.8 12.8 12.8 32 0 44.8l-272 272z m-416-518.4c12.8-12.8 32-12.8 44.8 0 12.8 12.8 12.8 32 0 44.8-12.8 12.8-32 12.8-44.8 0-12.8-12.8-12.8-35.2 0-44.8z"  horiz-adv-x="1024" />

    
    <glyph glyph-name="duanxin" unicode="&#60262;" d="M204.8 672l278.4-278.4c12.8-12.8 35.2-12.8 48 0l288 278.4H204.8z m688-19.2l-320-307.2c-38.4-35.2-99.2-35.2-137.6 0L131.2 656c-3.2-6.4-3.2-9.6-3.2-16v-512c0-19.2 12.8-32 32-32h704c19.2 0 32 12.8 32 32V640c0 3.2 0 9.6-3.2 12.8zM160 736h704c54.4 0 96-41.6 96-96v-512c0-54.4-41.6-96-96-96H160c-54.4 0-96 41.6-96 96V640c0 54.4 41.6 96 96 96z"  horiz-adv-x="1024" />

    
    <glyph glyph-name="huiyuanyichu" unicode="&#60263;" d="M160 224c-35.2 0-64-28.8-64-64v-41.6c0-12.8 9.6-22.4 22.4-22.4h595.2c12.8 0 22.4 9.6 22.4 22.4V160c0 35.2-28.8 64-64 64H160z m0 64h512c70.4 0 128-57.6 128-128v-41.6c0-48-38.4-86.4-86.4-86.4H118.4C70.4 32 32 70.4 32 118.4V160c0 70.4 57.6 128 128 128z m544 160h256c19.2 0 32-12.8 32-32s-12.8-32-32-32h-256c-19.2 0-32 12.8-32 32s12.8 32 32 32zM336 736C310.4 736 288 713.6 288 688V544c0-70.4 57.6-128 128-128s128 57.6 128 128V688c0 25.6-22.4 48-48 48h-160z m0 64h156.8c64 0 112-51.2 112-112V544c0-105.6-86.4-192-192-192s-192 86.4-192 192V688C224 748.8 275.2 800 336 800z"  horiz-adv-x="1024" />

    
    <glyph glyph-name="luxiandaohang" unicode="&#60264;" d="M512-64C265.6-64 64 137.6 64 384S265.6 832 512 832s448-201.6 448-448-201.6-448-448-448z m0 64c211.2 0 384 172.8 384 384S723.2 768 512 768 128 595.2 128 384s172.8-384 384-384z m188.8 531.2L608 304c-3.2-9.6-9.6-16-19.2-19.2l-227.2-89.6c-25.6-9.6-51.2 16-41.6 41.6l89.6 227.2c3.2 9.6 9.6 16 19.2 19.2l227.2 89.6c28.8 9.6 54.4-16 44.8-41.6z m-233.6-102.4l-57.6-144 144 57.6 57.6 144-144-57.6z"  horiz-adv-x="1024" />

    
    <glyph glyph-name="shujumaidian" unicode="&#60265;" d="M950.4 406.4c6.4-6.4 9.6-12.8 9.6-22.4 0-246.4-201.6-448-448-448S64 137.6 64 384c0 9.6 3.2 16 9.6 22.4s12.8 9.6 22.4 9.6h128c19.2 0 32-12.8 32-32s-12.8-32-32-32H128c16-198.4 182.4-352 384-352s368 153.6 384 352h-96c-19.2 0-32 12.8-32 32s12.8 32 32 32h128c9.6 0 16-3.2 22.4-9.6zM480 579.2c-54.4 12.8-96 64-96 124.8 0 70.4 57.6 128 128 128s128-57.6 128-128c0-60.8-41.6-108.8-96-124.8V224c0-19.2-12.8-32-32-32s-32 12.8-32 32V579.2zM512 640c35.2 0 64 28.8 64 64s-28.8 64-64 64-64-28.8-64-64 28.8-64 64-64z"  horiz-adv-x="1024" />

    
    <glyph glyph-name="tongzhihongniang" unicode="&#60266;" d="M896 384c0 211.2-172.8 384-384 384S128 595.2 128 384s172.8-384 384-384c102.4 0 201.6 41.6 272 112 12.8 12.8 32 12.8 44.8 0 12.8-12.8 12.8-32 0-44.8-83.2-83.2-195.2-131.2-316.8-131.2-246.4 0-448 201.6-448 448S265.6 832 512 832s448-201.6 448-448c0-89.6-70.4-160-160-160-51.2 0-96 22.4-124.8 60.8-35.2-54.4-96-92.8-163.2-92.8-105.6 0-192 86.4-192 192s86.4 192 192 192 192-86.4 192-192c0-54.4 41.6-96 96-96s96 41.6 96 96z m-384-128c70.4 0 128 57.6 128 128s-57.6 128-128 128-128-57.6-128-128 57.6-128 128-128z"  horiz-adv-x="1024" />

    
    <glyph glyph-name="xiangshang3" unicode="&#60267;" d="M934.4 147.2c12.8-12.8 32-12.8 44.8 0 12.8 12.8 12.8 32 0 44.8L547.2 620.8c-6.4 6.4-16 9.6-22.4 9.6s-16-3.2-22.4-9.6L73.6 192c-12.8-12.8-12.8-32 0-44.8 12.8-12.8 32-12.8 44.8 0l406.4 406.4 409.6-406.4z"  horiz-adv-x="1024" />

    
    <glyph glyph-name="mimayincang" unicode="&#60268;" d="M275.2 604.8c-76.8-44.8-137.6-112-176-192 73.6-153.6 233.6-256 412.8-256 60.8 0 121.6 12.8 176 35.2l-64 64c-32-22.4-70.4-35.2-112-35.2-105.6 0-192 86.4-192 192 0 41.6 12.8 80 35.2 112L275.2 604.8zM230.4 652.8L182.4 697.6c-12.8 12.8-12.8 32 0 44.8 12.8 12.8 32 12.8 44.8 0l611.2-611.2c12.8-12.8 12.8-32 0-44.8s-32-12.8-44.8 0L736 144c-70.4-32-147.2-48-224-48-211.2 0-396.8 121.6-476.8 307.2-3.2 3.2-3.2 6.4-3.2 12.8 0 3.2 0 9.6 3.2 12.8 38.4 89.6 108.8 169.6 195.2 224z m172.8-172.8c-12.8-19.2-19.2-41.6-19.2-64 0-70.4 57.6-128 128-128 22.4 0 44.8 6.4 64 19.2L403.2 480zM992 416c0-6.4 0-12.8-3.2-19.2-28.8-60.8-67.2-118.4-118.4-163.2-12.8-12.8-32-9.6-44.8 3.2s-9.6 32 3.2 44.8c41.6 38.4 73.6 83.2 99.2 134.4-73.6 153.6-233.6 256-412.8 256-32 0-60.8-3.2-92.8-9.6-16-3.2-35.2 6.4-38.4 25.6s6.4 35.2 25.6 38.4c32 6.4 67.2 9.6 102.4 9.6 208 0 393.6-121.6 476.8-300.8 3.2-9.6 3.2-16 3.2-19.2z"  horiz-adv-x="1024" />

    
    <glyph glyph-name="xiangyou" unicode="&#60269;" d="M265.6 790.4c-12.8 12.8-12.8 32 0 44.8 12.8 12.8 32 12.8 44.8 0l428.8-428.8c6.4-6.4 9.6-16 9.6-22.4s-3.2-16-9.6-22.4L310.4-67.2c-12.8-12.8-32-12.8-44.8 0-12.8 12.8-12.8 32 0 44.8L672 384 265.6 790.4z"  horiz-adv-x="1024" />

    
    <glyph glyph-name="zhoubian" unicode="&#60270;" d="M240 112c12.8-12.8 12.8-32 0-44.8-12.8-12.8-32-12.8-44.8 0C112 150.4 64 262.4 64 384s48 233.6 131.2 316.8c12.8 12.8 32 12.8 44.8 0 12.8-12.8 12.8-32 0-44.8C169.6 582.4 128 486.4 128 384s41.6-198.4 112-272z m160 160c12.8-12.8 12.8-32 0-44.8s-32-12.8-44.8 0C310.4 268.8 288 323.2 288 384s22.4 115.2 67.2 156.8c12.8 12.8 32 12.8 44.8 0 12.8-12.8 12.8-32 0-44.8-32-28.8-48-70.4-48-112s16-83.2 48-112z m390.4-160c70.4 70.4 112 169.6 112 272s-41.6 198.4-112 272c-12.8 12.8-12.8 32 0 44.8 12.8 12.8 32 12.8 44.8 0 83.2-83.2 131.2-195.2 131.2-316.8s-48-233.6-131.2-316.8c-12.8-12.8-32-12.8-44.8 0-12.8 12.8-12.8 32 0 44.8z m-160 160c28.8 28.8 48 70.4 48 112s-16 83.2-48 112c-12.8 12.8-12.8 32 0 44.8 12.8 12.8 32 12.8 44.8 0 41.6-41.6 67.2-99.2 67.2-156.8s-22.4-115.2-67.2-156.8c-12.8-12.8-32-12.8-44.8 0s-12.8 32 0 44.8zM512 352c-19.2 0-32 12.8-32 32s12.8 32 32 32 32-12.8 32-32-12.8-32-32-32z"  horiz-adv-x="1024" />

    
    <glyph glyph-name="xiangzuo" unicode="&#60271;" d="M332.8 384l406.4-406.4c12.8-12.8 12.8-32 0-44.8-12.8-12.8-32-12.8-44.8 0L265.6 361.6c-6.4 6.4-9.6 12.8-9.6 22.4s3.2 16 9.6 22.4L694.4 835.2c12.8 12.8 32 12.8 44.8 0 12.8-12.8 12.8-32 0-44.8L332.8 384z"  horiz-adv-x="1024" />

    
    <glyph glyph-name="xiangxia3" unicode="&#60272;" d="M524.8 214.4L118.4 620.8c-12.8 12.8-32 12.8-44.8 0-12.8-12.8-12.8-32 0-44.8l428.8-428.8c6.4-6.4 16-9.6 22.4-9.6s16 3.2 22.4 9.6L979.2 576c12.8 12.8 12.8 32 0 44.8-12.8 12.8-32 12.8-44.8 0L524.8 214.4z"  horiz-adv-x="1024" />

    
    <glyph glyph-name="aiqingyuehui" unicode="&#60273;" d="M470.4 691.2l44.8-44.8 44.8 44.8c99.2 99.2 262.4 99.2 361.6 0 48-48 73.6-112 73.6-179.2 0-19.2-12.8-32-32-32s-32 12.8-32 32c0 51.2-19.2 99.2-57.6 134.4-73.6 73.6-195.2 73.6-272 0l-67.2-67.2c-12.8-12.8-32-12.8-44.8 0l-67.2 67.2c-73.6 73.6-195.2 73.6-272 0-73.6-73.6-73.6-195.2 0-272l361.6-361.6c12.8-12.8 12.8-32 0-44.8s-32-12.8-44.8 0l-361.6 361.6c-99.2 99.2-99.2 262.4 0 361.6 102.4 102.4 262.4 102.4 364.8 0z m176-710.4l-220.8 220.8c-57.6 57.6-57.6 147.2 0 204.8 57.6 57.6 147.2 57.6 204.8 0l57.6-57.6 57.6 57.6c57.6 57.6 147.2 57.6 204.8 0 57.6-57.6 57.6-147.2 0-204.8l-220.8-220.8c-9.6-9.6-25.6-16-38.4-16-19.2 0-32 6.4-44.8 16z m256 265.6c32 32 32 83.2 0 112-32 32-83.2 32-112 0l-80-80c-12.8-12.8-32-12.8-44.8 0l-80 80c-32 32-83.2 32-112 0-32-32-32-83.2 0-112l214.4-214.4 214.4 214.4z"  horiz-adv-x="1024" />

    
    <glyph glyph-name="fuwulianjie" unicode="&#60274;" d="M563.2 227.2c12.8 12.8 32 12.8 44.8 0s12.8-32 0-44.8l-182.4-182.4c-73.6-73.6-195.2-73.6-272 0-76.8 73.6-73.6 195.2 0 272l182.4 182.4c73.6 73.6 195.2 73.6 272 0 12.8-12.8 12.8-32 0-44.8-12.8-12.8-32-12.8-44.8 0-51.2 51.2-131.2 51.2-182.4 0l-182.4-182.4c-51.2-51.2-51.2-131.2 0-182.4 51.2-51.2 131.2-51.2 182.4 0l182.4 182.4z m-76.8 320c-12.8-12.8-32-12.8-44.8 0-12.8 12.8-12.8 32 0 44.8l182.4 182.4c73.6 73.6 195.2 73.6 272 0 76.8-73.6 73.6-195.2 0-272l-182.4-182.4c-73.6-73.6-195.2-73.6-272 0-12.8 12.8-12.8 32 0 44.8 12.8 12.8 32 12.8 44.8 0 51.2-51.2 131.2-51.2 182.4 0l182.4 182.4c51.2 51.2 51.2 131.2 0 182.4-51.2 51.2-131.2 51.2-182.4 0l-182.4-182.4z"  horiz-adv-x="1024" />

    
    <glyph glyph-name="huiyuangaowei" unicode="&#60275;" d="M160 192c-35.2 0-64-28.8-64-64v-41.6c0-12.8 9.6-22.4 22.4-22.4h595.2c12.8 0 22.4 9.6 22.4 22.4v41.6c0 35.2-28.8 64-64 64h-512z m0 64h512c70.4 0 128-57.6 128-128v-41.6c0-48-38.4-86.4-86.4-86.4h-595.2c-48 0-86.4 38.4-86.4 86.4v41.6c0 70.4 57.6 128 128 128z m768 320v-256c0-19.2-12.8-32-32-32s-32 12.8-32 32v256c0 19.2 12.8 32 32 32s32-12.8 32-32z m-32-352c19.2 0 32-12.8 32-32s-12.8-32-32-32-32 12.8-32 32 12.8 32 32 32z m-560 480c-25.6 0-48-22.4-48-48v-144c0-70.4 57.6-128 128-128s128 57.6 128 128v144c0 25.6-22.4 48-48 48h-160z m0 64h156.8c64 0 112-51.2 112-112v-144c0-105.6-86.4-192-192-192s-192 86.4-192 192v144c3.2 60.8 54.4 112 115.2 112z"  horiz-adv-x="1024" />

    
    <glyph glyph-name="huiyuannv" unicode="&#60276;" d="M224 192c-54.4 0-96-41.6-96-96v-64c0-19.2 12.8-32 32-32h704c19.2 0 32 12.8 32 32v64c0 54.4-41.6 96-96 96h-576z m0 64h576c89.6 0 160-70.4 160-160v-64c0-54.4-41.6-96-96-96h-704c-54.4 0-96 41.6-96 96v64c0 89.6 70.4 160 160 160z m384 96c54.4 0 96 41.6 96 96v128c0 105.6-86.4 192-192 192s-192-86.4-192-192v-128c0-54.4 41.6-96 96-96 19.2 0 32-12.8 32-32s-12.8-32-32-32c-89.6 0-160 70.4-160 160v128c0 140.8 115.2 256 256 256s256-115.2 256-256v-128c0-89.6-70.4-160-160-160-19.2 0-32 12.8-32 32s12.8 32 32 32z m-192 224v-64c0-54.4 41.6-96 96-96s96 41.6 96 96v92.8c-54.4-19.2-121.6-28.8-192-28.8z m256 80v-144c0-89.6-70.4-160-160-160s-160 70.4-160 160v96c0 19.2 16 32 32 32h32c83.2 0 160 16 208 44.8 22.4 9.6 48-6.4 48-28.8z"  horiz-adv-x="1024" />

    
    <glyph glyph-name="huiyuanpengyou" unicode="&#60277;" d="M160 192c-35.2 0-64-28.8-64-64v-41.6c0-12.8 9.6-22.4 22.4-22.4h595.2c12.8 0 22.4 9.6 22.4 22.4v41.6c0 35.2-28.8 64-64 64h-512z m0 64h512c70.4 0 128-57.6 128-128v-41.6c0-48-38.4-86.4-86.4-86.4h-595.2c-48 0-86.4 38.4-86.4 86.4v41.6c0 70.4 57.6 128 128 128z m176 448c-25.6 0-48-22.4-48-48v-144c0-70.4 57.6-128 128-128s128 57.6 128 128v144c0 25.6-22.4 48-48 48h-160z m0 64h156.8c64 0 112-51.2 112-112v-144c0-105.6-86.4-192-192-192s-192 86.4-192 192v144c3.2 60.8 54.4 112 115.2 112z m528-576c-19.2 0-32 12.8-32 32s12.8 32 32 32c70.4 0 128-57.6 128-128v-41.6c0-48-38.4-86.4-86.4-86.4h-41.6c-19.2 0-32 12.8-32 32s12.8 32 32 32h41.6c12.8 0 22.4 9.6 22.4 22.4v41.6c0 35.2-28.8 64-64 64z m-192 512c-19.2 0-32 12.8-32 32s12.8 32 32 32h48c64 0 112-51.2 112-112v-144c0-105.6-86.4-192-192-192-19.2 0-32 12.8-32 32s12.8 32 32 32c70.4 0 128 57.6 128 128v144c0 25.6-22.4 48-48 48h-48z"  horiz-adv-x="1024" />

    
    <glyph glyph-name="huiyuannan" unicode="&#60278;" d="M800 256h-576c-89.6 0-160-70.4-160-160v-64c0-54.4 41.6-96 96-96h704c54.4 0 96 41.6 96 96v64c0 89.6-70.4 160-160 160z m96-224c0-19.2-12.8-32-32-32h-704c-19.2 0-32 12.8-32 32v64c0 54.4 41.6 96 96 96h576c54.4 0 96-41.6 96-96v-64zM288 544c0-124.8 99.2-224 224-224s224 99.2 224 224c19.2 0 32 12.8 32 32v64c0 19.2-12.8 32-32 32v32c0 70.4-57.6 128-128 128h-192c-70.4 0-128-57.6-128-128v-32c-19.2 0-32-12.8-32-32v-64c0-19.2 12.8-32 32-32z m64 160c0 35.2 28.8 64 64 64h192c35.2 0 64-28.8 64-64v-160c0-89.6-70.4-160-160-160s-160 70.4-160 160v160z"  horiz-adv-x="1024" />

    
    <glyph glyph-name="huiyuanshanchukehu" unicode="&#60279;" d="M160 192c-35.2 0-64-28.8-64-64v-41.6c0-12.8 9.6-22.4 22.4-22.4h595.2c12.8 0 22.4 9.6 22.4 22.4v41.6c0 35.2-28.8 64-64 64h-512z m707.2 233.6l-67.2 67.2c-12.8 12.8-32 12.8-44.8 0s-12.8-32 0-44.8l67.2-67.2-67.2-67.2c-12.8-12.8-12.8-32 0-44.8 12.8-12.8 32-12.8 44.8 0l67.2 67.2 67.2-67.2c12.8-12.8 32-12.8 44.8 0 12.8 12.8 12.8 32 0 44.8l-67.2 67.2 67.2 67.2c12.8 12.8 12.8 32 0 44.8s-32 12.8-44.8 0l-67.2-67.2z m-707.2-169.6h512c70.4 0 128-57.6 128-128v-41.6c0-48-38.4-86.4-86.4-86.4h-595.2c-48 0-86.4 38.4-86.4 86.4v41.6c0 70.4 57.6 128 128 128z m176 448c-25.6 0-48-22.4-48-48v-144c0-70.4 57.6-128 128-128s128 57.6 128 128v144c0 25.6-22.4 48-48 48h-160z m0 64h156.8c64 0 112-51.2 112-112v-144c0-105.6-86.4-192-192-192s-192 86.4-192 192v144c3.2 60.8 54.4 112 115.2 112z"  horiz-adv-x="1024" />

    
    <glyph glyph-name="huiyuantianjiakehu" unicode="&#60280;" d="M160 192c-35.2 0-64-28.8-64-64v-41.6c0-12.8 9.6-22.4 22.4-22.4h595.2c12.8 0 22.4 9.6 22.4 22.4v41.6c0 35.2-28.8 64-64 64h-512z m704 224h96c19.2 0 32-12.8 32-32s-12.8-32-32-32h-96v-96c0-19.2-12.8-32-32-32s-32 12.8-32 32v96h-96c-19.2 0-32 12.8-32 32s12.8 32 32 32h96v96c0 19.2 12.8 32 32 32s32-12.8 32-32v-96z m-704-160h512c70.4 0 128-57.6 128-128v-41.6c0-48-38.4-86.4-86.4-86.4h-595.2c-48 0-86.4 38.4-86.4 86.4v41.6c0 70.4 57.6 128 128 128z m176 448c-25.6 0-48-22.4-48-48v-144c0-70.4 57.6-128 128-128s128 57.6 128 128v144c0 25.6-22.4 48-48 48h-160z m0 64h156.8c64 0 112-51.2 112-112v-144c0-105.6-86.4-192-192-192s-192 86.4-192 192v144c3.2 60.8 54.4 112 115.2 112z"  horiz-adv-x="1024" />

    
    <glyph glyph-name="huiyuanguanli" unicode="&#60281;" d="M160 192c-35.2 0-64-28.8-64-64v-41.6c0-12.8 9.6-22.4 22.4-22.4h595.2c12.8 0 22.4 9.6 22.4 22.4v41.6c0 35.2-28.8 64-64 64h-512z m0 64h512c70.4 0 128-57.6 128-128v-41.6c0-48-38.4-86.4-86.4-86.4h-595.2c-48 0-86.4 38.4-86.4 86.4v41.6c0 70.4 57.6 128 128 128z m544 448h256c19.2 0 32-12.8 32-32s-12.8-32-32-32h-256c-19.2 0-32 12.8-32 32s12.8 32 32 32z m0-288h256c19.2 0 32-12.8 32-32s-12.8-32-32-32h-256c-19.2 0-32 12.8-32 32s12.8 32 32 32z m192-288h64c19.2 0 32-12.8 32-32s-12.8-32-32-32h-64c-19.2 0-32 12.8-32 32s12.8 32 32 32z m-560 576c-25.6 0-48-22.4-48-48v-144c0-70.4 57.6-128 128-128s128 57.6 128 128v144c0 25.6-22.4 48-48 48h-160z m0 64h156.8c64 0 112-51.2 112-112v-144c0-105.6-86.4-192-192-192s-192 86.4-192 192v144c3.2 60.8 54.4 112 115.2 112z"  horiz-adv-x="1024" />

    
    <glyph glyph-name="huiyuanzhongxin" unicode="&#60282;" d="M224 192c-54.4 0-96-41.6-96-96v-64c0-19.2 12.8-32 32-32h704c19.2 0 32 12.8 32 32v64c0 54.4-41.6 96-96 96h-576z m0 64h576c89.6 0 160-70.4 160-160v-64c0-54.4-41.6-96-96-96h-704c-54.4 0-96 41.6-96 96v64c0 89.6 70.4 160 160 160z m192 512c-35.2 0-64-28.8-64-64v-160c0-89.6 70.4-160 160-160s160 70.4 160 160v160c0 35.2-28.8 64-64 64h-192z m0 64h192c70.4 0 128-57.6 128-128v-160c0-124.8-99.2-224-224-224s-224 99.2-224 224v160c0 70.4 57.6 128 128 128z"  horiz-adv-x="1024" />

    
    <glyph glyph-name="huiyuanquerendaodian" unicode="&#60283;" d="M160 192c-35.2 0-64-28.8-64-64v-41.6c0-12.8 9.6-22.4 22.4-22.4h595.2c12.8 0 22.4 9.6 22.4 22.4v41.6c0 35.2-28.8 64-64 64h-512z m0 64h512c70.4 0 128-57.6 128-128v-41.6c0-48-38.4-86.4-86.4-86.4h-595.2c-48 0-86.4 38.4-86.4 86.4v41.6c0 70.4 57.6 128 128 128z m620.8 89.6l156.8 156.8c12.8 12.8 32 12.8 44.8 0 12.8-12.8 12.8-32 0-44.8l-182.4-182.4c-6.4-6.4-16-9.6-22.4-9.6-6.4 0-16 3.2-22.4 9.6l-112 112c-12.8 12.8-12.8 32 0 44.8s32 12.8 44.8 0l92.8-86.4z m-444.8 422.4h156.8c64 0 112-51.2 112-112v-144c0-105.6-86.4-192-192-192s-192 86.4-192 192v144c3.2 60.8 54.4 112 115.2 112z m0-64c-25.6 0-48-22.4-48-48v-144c0-70.4 57.6-128 128-128s128 57.6 128 128v144c0 25.6-22.4 48-48 48h-160z"  horiz-adv-x="1024" />

    
    <glyph glyph-name="huoyuedu" unicode="&#60284;" d="M380.8 652.8l230.4-630.4c9.6-25.6 44.8-28.8 57.6-3.2l182.4 332.8h108.8c19.2 0 32 12.8 32 32s-12.8 32-32 32h-128c-12.8 0-22.4-6.4-28.8-16l-156.8-291.2-233.6 636.8c-9.6 25.6-48 28.8-60.8 3.2l-147.2-332.8h-140.8c-19.2 0-32-12.8-32-32s12.8-32 32-32h160c12.8 0 22.4 6.4 28.8 19.2l128 281.6z"  horiz-adv-x="1024" />

    
    <glyph glyph-name="jianting" unicode="&#60285;" d="M512 832c-211.2 0-384-172.8-384-384v-160c0-54.4 41.6-96 96-96h64c54.4 0 96 41.6 96 96v96c0 54.4-41.6 96-96 96h-64c-9.6 0-22.4-3.2-32-6.4 16 166.4 153.6 294.4 320 294.4s304-128 320-294.4c-9.6 3.2-19.2 6.4-32 6.4h-64c-54.4 0-96-41.6-96-96v-96c0-54.4 41.6-96 96-96h64c9.6 0 19.2 3.2 28.8 3.2-12.8-73.6-76.8-131.2-156.8-131.2h-6.4c-12.8 38.4-48 64-89.6 64h-64c-54.4 0-96-41.6-96-96s41.6-96 96-96h64c41.6 0 76.8 25.6 89.6 64h6.4c124.8 0 224 99.2 224 224v224c0 211.2-172.8 384-384 384z m-288-416h64c19.2 0 32-12.8 32-32v-96c0-19.2-12.8-32-32-32h-64c-19.2 0-32 12.8-32 32v96c0 19.2 12.8 32 32 32z m352-416h-64c-19.2 0-32 12.8-32 32s12.8 32 32 32h64c19.2 0 32-12.8 32-32s-12.8-32-32-32z m256 288c0-19.2-12.8-32-32-32h-64c-19.2 0-32 12.8-32 32v96c0 19.2 12.8 32 32 32h64c19.2 0 32-12.8 32-32v-96z"  horiz-adv-x="1024" />

    
    <glyph glyph-name="jingshi3" unicode="&#60286;" d="M512-64c-246.4 0-448 201.6-448 448s201.6 448 448 448 448-201.6 448-448-201.6-448-448-448z m0 64c211.2 0 384 172.8 384 384s-172.8 384-384 384-384-172.8-384-384 172.8-384 384-384z m0 608c19.2 0 32-12.8 32-32v-256c0-19.2-12.8-32-32-32s-32 12.8-32 32v256c0 19.2 12.8 32 32 32z m0-448c-19.2 0-32 12.8-32 32s12.8 32 32 32 32-12.8 32-32-12.8-32-32-32z"  horiz-adv-x="1024" />

    
    <glyph glyph-name="kurong" unicode="&#60287;" d="M544 22.4l281.6 163.2c9.6 6.4 16 16 16 28.8v323.2l-281.6-163.2c-6.4-3.2-9.6-6.4-16-6.4v-345.6z m-64 0v345.6c-6.4 3.2-9.6 3.2-16 6.4l-281.6 163.2v-323.2c0-12.8 6.4-22.4 16-28.8l281.6-163.2z m329.6 569.6l-281.6 163.2c-9.6 6.4-22.4 6.4-32 0l-281.6-163.2 281.6-163.2c9.6-6.4 22.4-6.4 32 0l281.6 163.2z m48 44.8c28.8-16 48-48 48-83.2v-342.4c0-35.2-19.2-67.2-48-83.2l-297.6-169.6c-28.8-16-67.2-16-96 0l-297.6 169.6c-28.8 16-48 48-48 83.2v342.4c0 35.2 19.2 67.2 48 83.2l297.6 169.6c28.8 16 67.2 16 96 0l297.6-169.6z"  horiz-adv-x="1024" />

    
    <glyph glyph-name="neirongqiehuan" unicode="&#60288;" d="M198.4 192h537.6c54.4 0 96 41.6 96 96v96c0 19.2 12.8 32 32 32s32-12.8 32-32v-96c0-89.6-70.4-160-160-160h-563.2l118.4-118.4c12.8-12.8 12.8-32 0-44.8-12.8-12.8-32-12.8-44.8 0l-156.8 156.8c-6.4 6.4-9.6 16-9.6 22.4 0 9.6 3.2 16 9.6 22.4l156.8 156.8c12.8 12.8 32 12.8 44.8 0 12.8-12.8 12.8-32 0-44.8l-92.8-86.4z m643.2 416h-617.6c-54.4 0-96-41.6-96-96v-96c0-19.2-12.8-32-32-32s-32 12.8-32 32v96c0 89.6 70.4 160 160 160h595.2l-92.8 92.8c-12.8 12.8-12.8 32 0 44.8 12.8 12.8 32 12.8 44.8 0l156.8-160c6.4-6.4 9.6-16 9.6-22.4 0-9.6-3.2-16-9.6-22.4l-156.8-156.8c-12.8-12.8-32-12.8-44.8 0-12.8 12.8-12.8 32 0 44.8l115.2 115.2z"  horiz-adv-x="1024" />

    
    <glyph glyph-name="pingmuquanping" unicode="&#60289;" d="M192 512v96c0 54.4 41.6 96 96 96h96c19.2 0 32 12.8 32 32s-12.8 32-32 32h-96c-89.6 0-160-70.4-160-160v-96c0-19.2 12.8-32 32-32s32 12.8 32 32z m-64-256v-96c0-89.6 70.4-160 160-160h96c19.2 0 32 12.8 32 32s-12.8 32-32 32h-96c-54.4 0-96 41.6-96 96v96c0 19.2-12.8 32-32 32s-32-12.8-32-32z m768 256v96c0 89.6-70.4 160-160 160h-96c-19.2 0-32-12.8-32-32s12.8-32 32-32h96c54.4 0 96-41.6 96-96v-96c0-19.2 12.8-32 32-32s32 12.8 32 32z m-64-256v-96c0-54.4-41.6-96-96-96h-96c-19.2 0-32-12.8-32-32s12.8-32 32-32h96c89.6 0 160 70.4 160 160v96c0 19.2-12.8 32-32 32s-32-12.8-32-32z"  horiz-adv-x="1024" />

    
    <glyph glyph-name="paihangbang" unicode="&#60290;" d="M160 288c-19.2 0-32-12.8-32-32v-128c0-19.2 12.8-32 32-32h64c19.2 0 32 12.8 32 32v128c0 19.2-12.8 32-32 32h-64z m0 64h64c54.4 0 96-41.6 96-96v-128c0-54.4-41.6-96-96-96h-64c-54.4 0-96 41.6-96 96v128c0 54.4 41.6 96 96 96z m320 320c-19.2 0-32-12.8-32-32v-512c0-19.2 12.8-32 32-32h64c19.2 0 32 12.8 32 32v512c0 19.2-12.8 32-32 32h-64z m0 64h64c54.4 0 96-41.6 96-96v-512c0-54.4-41.6-96-96-96h-64c-54.4 0-96 41.6-96 96v512c0 54.4 41.6 96 96 96z m320-320c-19.2 0-32-12.8-32-32v-256c0-19.2 12.8-32 32-32h64c19.2 0 32 12.8 32 32v256c0 19.2-12.8 32-32 32h-64z m0 64h64c54.4 0 96-41.6 96-96v-256c0-54.4-41.6-96-96-96h-64c-54.4 0-96 41.6-96 96v256c0 54.4 41.6 96 96 96z"  horiz-adv-x="1024" />

    
    <glyph glyph-name="manyiduyiban" unicode="&#60291;" d="M640 256h-256c-19.2 0-32-12.8-32-32s12.8-32 32-32h256c19.2 0 32 12.8 32 32s-12.8 32-32 32zM384 480v32c0 19.2-12.8 32-32 32s-32-12.8-32-32v-32c0-19.2 12.8-32 32-32s32 12.8 32 32zM512 832c-246.4 0-448-201.6-448-448s201.6-448 448-448 448 201.6 448 448-201.6 448-448 448z m0-832c-211.2 0-384 172.8-384 384s172.8 384 384 384 384-172.8 384-384-172.8-384-384-384zM672 544c-19.2 0-32-12.8-32-32v-32c0-19.2 12.8-32 32-32s32 12.8 32 32v32c0 19.2-12.8 32-32 32z"  horiz-adv-x="1024" />

    
    <glyph glyph-name="paizhao" unicode="&#60292;" d="M512 608c-124.8 0-224-99.2-224-224s99.2-224 224-224 224 99.2 224 224-99.2 224-224 224z m0-384c-89.6 0-160 70.4-160 160s70.4 160 160 160 160-70.4 160-160-70.4-160-160-160zM864 672h-128c-19.2 0-32 12.8-32 32v32c0 35.2-28.8 64-64 64h-256c-35.2 0-64-28.8-64-64v-32c0-19.2-12.8-32-32-32h-128c-54.4 0-96-41.6-96-96v-448c0-54.4 41.6-96 96-96h704c54.4 0 96 41.6 96 96v448c0 54.4-41.6 96-96 96z m32-544c0-19.2-12.8-32-32-32h-704c-19.2 0-32 12.8-32 32v448c0 19.2 12.8 32 32 32h128c54.4 0 96 41.6 96 96v32h256v-32c0-54.4 41.6-96 96-96h128c19.2 0 32-12.8 32-32v-448z"  horiz-adv-x="1024" />

    
    <glyph glyph-name="quanbu" unicode="&#60293;" d="M512 764.8l-345.6-188.8 345.6-169.6 345.6 169.6-345.6 188.8z m16 64l416-224c22.4-12.8 22.4-44.8 0-57.6l-416-208c-9.6-3.2-19.2-3.2-28.8 0l-416 208c-22.4 12.8-22.4 44.8 0 57.6l416 224c6.4 3.2 19.2 3.2 28.8 0z m-419.2-416l403.2-198.4 403.2 198.4c16 6.4 35.2 0 41.6-16 6.4-16 0-35.2-16-41.6l-428.8-214.4-428.8 214.4c-16 6.4-22.4 25.6-16 41.6 9.6 16 28.8 22.4 41.6 16z m0-192l403.2-198.4 403.2 198.4c16 6.4 35.2 0 41.6-16 6.4-16 0-35.2-16-41.6l-428.8-214.4-428.8 214.4c-16 6.4-22.4 25.6-16 41.6 9.6 16 28.8 22.4 41.6 16z"  horiz-adv-x="1024" />

    
    <glyph glyph-name="huiyuanVIP" unicode="&#60294;" d="M416 768c-35.2 0-64-28.8-64-64v-160c0-89.6 70.4-160 160-160s160 70.4 160 160v160c0 35.2-28.8 64-64 64h-192z m416-768v-32c0-19.2-12.8-32-32-32s-32 12.8-32 32v192h112c44.8 0 80-35.2 80-80s-35.2-80-80-80h-48z m-416 832h192c70.4 0 128-57.6 128-128v-160c0-124.8-99.2-224-224-224s-224 99.2-224 224v160c0 70.4 57.6 128 128 128z m416-768h48c9.6 0 16 6.4 16 16s-6.4 16-16 16h-48v-32z m-419.2 76.8l51.2-102.4 51.2 102.4c6.4 16 25.6 22.4 41.6 12.8 16-6.4 22.4-25.6 12.8-41.6l-80-160c-12.8-22.4-44.8-22.4-57.6 0l-80 160c-6.4 16 0 35.2 12.8 41.6 19.2 9.6 38.4 3.2 48-12.8z m259.2 19.2c19.2 0 32-12.8 32-32v-160c0-19.2-12.8-32-32-32s-32 12.8-32 32v160c0 19.2 12.8 32 32 32z m-384-160c19.2 0 32-12.8 32-32s-12.8-32-32-32h-128c-54.4 0-96 41.6-96 96v64c0 89.6 70.4 160 160 160h576c19.2 0 32-12.8 32-32s-12.8-32-32-32h-576c-54.4 0-96-41.6-96-96v-64c0-19.2 12.8-32 32-32h128z"  horiz-adv-x="1024" />

    
    <glyph glyph-name="shimingrenzheng1" unicode="&#60295;" d="M896 640c0 19.2-12.8 32-32 32h-704c-19.2 0-32-12.8-32-32v-512c0-19.2 12.8-32 32-32h704c19.2 0 32 12.8 32 32v512z m64 0v-512c0-54.4-41.6-96-96-96h-704c-54.4 0-96 41.6-96 96v512c0 54.4 41.6 96 96 96h704c54.4 0 96-41.6 96-96z m-688-352c-9.6 0-16-6.4-16-16v-16h224v16c0 9.6-6.4 16-16 16h-192z m0 64h192c44.8 0 80-35.2 80-80v-16c0-35.2-28.8-64-64-64h-224c-35.2 0-64 28.8-64 64v16c0 44.8 35.2 80 80 80z m368 160h160c19.2 0 32-12.8 32-32s-12.8-32-32-32h-160c-19.2 0-32 12.8-32 32s12.8 32 32 32z m0-160h160c19.2 0 32-12.8 32-32s-12.8-32-32-32h-160c-19.2 0-32 12.8-32 32s12.8 32 32 32z m-320 192v-48c0-25.6 22.4-48 48-48s48 22.4 48 48v48h-96z m0 64h96c35.2 0 64-28.8 64-64v-48c0-60.8-51.2-112-112-112s-112 51.2-112 112v48c0 35.2 28.8 64 64 64z"  horiz-adv-x="1024" />

    
    <glyph glyph-name="zhimarenzheng" unicode="&#60296;" d="M787.2 684.8l-112 112c-86.4 86.4-230.4 86.4-316.8 0-35.2-35.2-54.4-76.8-64-121.6-121.6-73.6-198.4-208-198.4-355.2 0-230.4 185.6-416 416-416s416 185.6 416 416c0 134.4-48 268.8-140.8 364.8z m-275.2-716.8c-195.2 0-352 156.8-352 352 0 112 51.2 211.2 134.4 278.4 6.4-41.6 28.8-83.2 60.8-118.4l22.4-22.4-67.2-67.2c-64-64-64-163.2 0-227.2s163.2-64 227.2 0 64 163.2 0 227.2l-67.2 67.2-67.2 67.2c-64 64-64 163.2 0 227.2s163.2 64 227.2 0l105.6-108.8c96-99.2 128-201.6 128-323.2 0-195.2-156.8-352-352-352z m-19.2 240c-38.4-38.4-99.2-38.4-134.4 0s-38.4 99.2 0 134.4l67.2 67.2 67.2-67.2c38.4-35.2 38.4-96 0-134.4z"  horiz-adv-x="1024" />

    
    <glyph glyph-name="queren3" unicode="&#60297;" d="M512-64c-246.4 0-448 201.6-448 448s201.6 448 448 448 448-201.6 448-448-201.6-448-448-448z m0 64c211.2 0 384 172.8 384 384s-172.8 384-384 384-384-172.8-384-384 172.8-384 384-384z m-6.4 307.2l204.8 204.8c12.8 12.8 32 12.8 44.8 0s12.8-32 0-44.8l-227.2-227.2c-6.4-6.4-16-9.6-22.4-9.6-6.4 0-16 3.2-22.4 9.6l-182.4 182.4c-12.8 12.8-12.8 32 0 44.8s32 12.8 44.8 0l160-160z"  horiz-adv-x="1024" />

    
    <glyph glyph-name="zhankai2" unicode="&#60298;" d="M96 736h832c19.2 0 32-12.8 32-32s-12.8-32-32-32h-832c-19.2 0-32 12.8-32 32s12.8 32 32 32z m0-320h832c19.2 0 32-12.8 32-32s-12.8-32-32-32h-832c-19.2 0-32 12.8-32 32s12.8 32 32 32z m0-320h832c19.2 0 32-12.8 32-32s-12.8-32-32-32h-832c-19.2 0-32 12.8-32 32s12.8 32 32 32z"  horiz-adv-x="1024" />

    
    <glyph glyph-name="youxiajiao" unicode="&#60299;" d="M800 140.8l-572.8 572.8c-12.8 12.8-32 12.8-44.8 0-12.8-12.8-12.8-32 0-44.8l572.8-572.8h-435.2c-19.2 0-32-12.8-32-32s12.8-32 32-32h480c35.2 0 64 28.8 64 64v480c0 19.2-12.8 32-32 32s-32-12.8-32-32v-435.2z"  horiz-adv-x="1024" />

    
    <glyph glyph-name="zhiding1" unicode="&#60300;" d="M160 800c0 19.2 12.8 32 32 32h640c19.2 0 32-12.8 32-32s-12.8-32-32-32h-640c-19.2 0-32 12.8-32 32z m384-208v-624c0-19.2-12.8-32-32-32s-32 12.8-32 32v624l-262.4-262.4c-12.8-12.8-32-12.8-44.8 0-12.8 12.8-12.8 32 0 44.8l316.8 316.8c6.4 6.4 16 9.6 22.4 9.6s16-3.2 22.4-9.6l316.8-316.8c12.8-12.8 12.8-32 0-44.8-12.8-12.8-32-12.8-44.8 0l-262.4 262.4z"  horiz-adv-x="1024" />

    
    <glyph glyph-name="zaixianzhidao" unicode="&#60301;" d="M854.4 137.6c-6.4-6.4-12.8-9.6-22.4-9.6h-576c-19.2 0-32-12.8-32-32v-64c0-9.6 3.2-16 9.6-22.4 6.4-6.4 12.8-9.6 22.4-9.6h576c19.2 0 32-12.8 32-32s-12.8-32-32-32h-576c-54.4 0-96 41.6-96 96v704c0 54.4 41.6 96 96 96h512c54.4 0 96-41.6 96-96v-576c0-9.6-3.2-16-9.6-22.4z m-54.4 54.4v544c0 19.2-12.8 32-32 32h-512c-19.2 0-32-12.8-32-32v-550.4c9.6 3.2 19.2 6.4 32 6.4h544z m-384 448h192c35.2 0 64-28.8 64-64v-64c0-35.2-28.8-64-64-64h-192c-35.2 0-64 28.8-64 64v64c0 35.2 28.8 64 64 64z m0-64v-64h192v64h-192z"  horiz-adv-x="1024" />

    
    <glyph glyph-name="ziliaoduibi" unicode="&#60302;" d="M192 640v-576h576v576h-576z m0 64h576c35.2 0 64-28.8 64-64v-576c0-35.2-28.8-64-64-64h-576c-35.2 0-64 28.8-64 64v576c0 35.2 28.8 64 64 64z m128-192h320c19.2 0 32-12.8 32-32s-12.8-32-32-32h-320c-19.2 0-32 12.8-32 32s12.8 32 32 32z m0-128h320c19.2 0 32-12.8 32-32s-12.8-32-32-32h-320c-19.2 0-32 12.8-32 32s12.8 32 32 32z m0-128h320c19.2 0 32-12.8 32-32s-12.8-32-32-32h-320c-19.2 0-32 12.8-32 32s12.8 32 32 32z m32 512c-19.2 0-32 12.8-32 32s12.8 32 32 32h512c54.4 0 96-41.6 96-96v-512c0-19.2-12.8-32-32-32s-32 12.8-32 32v512c0 19.2-12.8 32-32 32h-512z"  horiz-adv-x="1024" />

    
    <glyph glyph-name="zuoshangjiao" unicode="&#60303;" d="M268.8 672l579.2-579.2c12.8-12.8 12.8-32 0-44.8s-32-12.8-44.8 0l-579.2 579.2v-499.2c0-19.2-12.8-32-32-32s-32 12.8-32 32v544c0 35.2 28.8 64 64 64h544c19.2 0 32-12.8 32-32s-12.8-32-32-32h-499.2z"  horiz-adv-x="1024" />

    
    <glyph glyph-name="zuoxiajiao" unicode="&#60304;" d="M224 153.6l572.8 572.8c12.8 12.8 32 12.8 44.8 0 12.8-12.8 12.8-32 0-44.8l-572.8-572.8h435.2c19.2 0 32-12.8 32-32s-12.8-32-32-32h-480c-35.2 0-64 28.8-64 64v480c0 19.2 12.8 32 32 32s32-12.8 32-32v-435.2z"  horiz-adv-x="1024" />

    
    <glyph glyph-name="rili1" unicode="&#60305;" d="M896 480v160c0 19.2-12.8 32-32 32h-160v-32c0-19.2-12.8-32-32-32s-32 12.8-32 32v32h-256v-32c0-19.2-12.8-32-32-32s-32 12.8-32 32v32h-160c-19.2 0-32-12.8-32-32v-160h768z m0-64h-768v-288c0-19.2 12.8-32 32-32h704c19.2 0 32 12.8 32 32v288z m-192 320h160c54.4 0 96-41.6 96-96v-512c0-54.4-41.6-96-96-96h-704c-54.4 0-96 41.6-96 96v512c0 54.4 41.6 96 96 96h160v32c0 19.2 12.8 32 32 32s32-12.8 32-32v-32h256v32c0 19.2 12.8 32 32 32s32-12.8 32-32v-32z"  horiz-adv-x="1024" />

    
    <glyph glyph-name="shaixuan2" unicode="&#60306;" d="M576-12.8v371.2c0 6.4 3.2 12.8 6.4 19.2l252.8 358.4h-643.2l252.8-358.4c3.2-6.4 6.4-12.8 6.4-19.2v-275.2l124.8-96z m64 0c0-35.2-28.8-64-64-64-12.8 0-25.6 3.2-38.4 12.8l-140.8 105.6c-9.6 6.4-12.8 16-12.8 25.6v281.6l-281.6 400a32 32 0 0 0 25.6 51.2h768c25.6 0 41.6-28.8 25.6-51.2l-281.6-400v-361.6z"  horiz-adv-x="1024" />

    
    <glyph glyph-name="renwu" unicode="&#60307;" d="M896 361.6v-265.6c0-54.4-41.6-96-96-96h-576c-54.4 0-96 41.6-96 96v256 3.2 6.4l102.4 416c3.2 12.8 16 25.6 32 25.6h499.2c16 0 28.8-9.6 32-25.6l102.4-416z m-73.6 22.4l-86.4 352h-448l-86.4-352h118.4c9.6 0 16-3.2 22.4-9.6l86.4-86.4h163.2l89.6 86.4c6.4 6.4 12.8 9.6 22.4 9.6h118.4z m9.6-64h-115.2l-89.6-86.4c-6.4-6.4-12.8-9.6-22.4-9.6h-188.8c-9.6 0-16 3.2-22.4 9.6l-86.4 86.4h-115.2v-224c0-19.2 12.8-32 32-32h576c19.2 0 32 12.8 32 32v224z"  horiz-adv-x="1024" />

    
    <glyph glyph-name="shezhi3" unicode="&#60308;" d="M396.8 16l41.6 48 6.4 6.4c38.4 35.2 99.2 32 134.4-6.4l41.6-48c22.4 6.4 44.8 16 64 25.6l-3.2 64v9.6c3.2 54.4 48 92.8 102.4 89.6l64-3.2c9.6 19.2 19.2 41.6 25.6 64l-48 41.6-6.4 6.4c-35.2 38.4-32 99.2 6.4 134.4l48 41.6c-6.4 22.4-16 44.8-25.6 64l-64-3.2h-9.6c-54.4 3.2-92.8 48-89.6 102.4l3.2 64c-19.2 9.6-41.6 19.2-64 25.6l-41.6-48-6.4-6.4c-38.4-35.2-99.2-32-134.4 6.4l-41.6 48c-16-6.4-38.4-16-64-28.8l3.2-64v-9.6c-3.2-54.4-48-92.8-102.4-89.6l-64 3.2c-9.6-19.2-19.2-41.6-25.6-64l48-41.6 6.4-6.4c35.2-38.4 32-99.2-6.4-134.4l-48-41.6c6.4-22.4 16-44.8 25.6-64l64 3.2h9.6c54.4-3.2 92.8-48 89.6-102.4l-3.2-64c22.4-6.4 41.6-12.8 64-22.4z m-128 12.8l3.2 83.2c0 19.2-12.8 32-28.8 35.2h-3.2l-83.2-3.2c-12.8 0-22.4 6.4-28.8 16-22.4 35.2-38.4 73.6-48 115.2-3.2 12.8 0 22.4 9.6 32l64 57.6c12.8 12.8 12.8 32 3.2 44.8l-3.2 3.2-64 57.6c-9.6 6.4-12.8 19.2-9.6 32 9.6 41.6 25.6 80 48 115.2 6.4 9.6 16 16 28.8 16l83.2-3.2c19.2 0 32 12.8 35.2 28.8v3.2l-3.2 83.2c0 12.8 6.4 25.6 19.2 28.8 48 25.6 86.4 38.4 115.2 48 12.8 3.2 22.4 0 32-9.6l57.6-64c12.8-12.8 32-12.8 44.8-3.2l3.2 3.2 57.6 64c6.4 9.6 19.2 12.8 32 9.6 41.6-9.6 80-25.6 115.2-48 9.6-6.4 16-16 16-28.8l-3.2-83.2c0-19.2 12.8-32 28.8-35.2h3.2l83.2 3.2c12.8 0 22.4-6.4 28.8-16 22.4-35.2 38.4-73.6 48-115.2 3.2-12.8 0-22.4-9.6-32l-64-57.6c-12.8-12.8-12.8-32-3.2-44.8l3.2-3.2 64-57.6c9.6-6.4 12.8-19.2 9.6-32-9.6-41.6-25.6-80-48-115.2-6.4-9.6-16-16-28.8-16l-83.2 3.2c-19.2 0-32-12.8-35.2-28.8v-3.2l3.2-83.2c0-12.8-6.4-22.4-16-28.8-35.2-22.4-73.6-38.4-115.2-48-12.8-3.2-22.4 0-32 9.6l-57.6 64c-12.8 12.8-32 12.8-44.8 3.2l-3.2-3.2-57.6-64c-6.4-9.6-19.2-12.8-32-9.6-41.6 9.6-80 25.6-115.2 48-12.8 3.2-19.2 16-19.2 28.8z m243.2 163.2c-105.6 0-192 86.4-192 192s86.4 192 192 192 192-86.4 192-192-86.4-192-192-192z m0 64c70.4 0 128 57.6 128 128s-57.6 128-128 128-128-57.6-128-128 57.6-128 128-128z"  horiz-adv-x="1024" />

    
    <glyph glyph-name="shangchuan3" unicode="&#60309;" d="M544 694.4v-470.4c0-19.2-12.8-32-32-32s-32 12.8-32 32v460.8l-121.6-121.6c-12.8-12.8-32-12.8-44.8 0-12.8 12.8-12.8 32 0 44.8l156.8 156.8c25.6 25.6 64 25.6 89.6 0l156.8-156.8c12.8-12.8 12.8-32 0-44.8-12.8-12.8-32-12.8-44.8 0l-128 131.2z m288-406.4c0 19.2 12.8 32 32 32s32-12.8 32-32v-160c0-54.4-41.6-96-96-96h-576c-54.4 0-96 41.6-96 96v160c0 19.2 12.8 32 32 32s32-12.8 32-32v-160c0-19.2 12.8-32 32-32h576c19.2 0 32 12.8 32 32v160z"  horiz-adv-x="1024" />

    
    <glyph glyph-name="shengjizhongxin" unicode="&#60310;" d="M512-64c-246.4 0-448 201.6-448 448s201.6 448 448 448 448-201.6 448-448-201.6-448-448-448z m0 64c211.2 0 384 172.8 384 384s-172.8 384-384 384-384-172.8-384-384 172.8-384 384-384z m32 505.6l80-80c12.8-12.8 32-12.8 44.8 0 12.8 12.8 12.8 32 0 44.8l-112 112c-25.6 25.6-64 25.6-89.6 0l-112-112c-12.8-12.8-12.8-32 0-44.8 12.8-12.8 32-12.8 44.8 0l80 80v-313.6c0-19.2 12.8-32 32-32s32 12.8 32 32v313.6z"  horiz-adv-x="1024" />

    
    <glyph glyph-name="shizhong" unicode="&#60311;" d="M512-64c-246.4 0-448 201.6-448 448s201.6 448 448 448 448-201.6 448-448-201.6-448-448-448z m0 64c211.2 0 384 172.8 384 384s-172.8 384-384 384-384-172.8-384-384 172.8-384 384-384z m32 576v-211.2l3.2-3.2 156.8-156.8c12.8-12.8 12.8-32 0-44.8s-32-12.8-44.8 0l-156.8 156.8c-3.2 3.2-22.4 22.4-22.4 35.2v224c0 19.2 12.8 32 32 32s32-12.8 32-32z"  horiz-adv-x="1024" />

    
    <glyph glyph-name="shouji1" unicode="&#60312;" d="M736 864h-448c-54.4 0-96-41.6-96-96v-768c0-54.4 41.6-96 96-96h448c54.4 0 96 41.6 96 96v768c0 54.4-41.6 96-96 96z m-480-96c0 19.2 12.8 32 32 32h448c19.2 0 32-12.8 32-32v-64h-512v64z m512-768c0-19.2-12.8-32-32-32h-448c-19.2 0-32 12.8-32 32v640h512v-640zM512 64m-32 0a32 32 0 1 1 64 0 32 32 0 1 1-64 0Z"  horiz-adv-x="1024" />

    
    <glyph glyph-name="shoucang1" unicode="&#60313;" d="M486.4 115.2c16 6.4 35.2 6.4 54.4 0l217.6-99.2-28.8 236.8c-3.2 19.2 3.2 38.4 16 51.2l163.2 176-233.6 48c-19.2 3.2-35.2 16-41.6 32l-118.4 208-118.4-208c-9.6-16-25.6-28.8-41.6-32l-233.6-48 163.2-176c12.8-12.8 19.2-32 16-51.2l-28.8-236.8 214.4 99.2z m-192-156.8c-32-16-70.4 0-86.4 32-6.4 9.6-6.4 22.4-6.4 35.2l28.8 236.8-163.2 176c-22.4 25.6-22.4 67.2 3.2 89.6 9.6 6.4 19.2 12.8 32 16l233.6 48 118.4 208c16 32 57.6 41.6 86.4 25.6 9.6-6.4 19.2-12.8 25.6-25.6l118.4-208 233.6-48c35.2-6.4 57.6-41.6 51.2-76.8-3.2-12.8-6.4-22.4-16-32l-163.2-176 28.8-236.8c3.2-35.2-22.4-67.2-57.6-70.4-12.8 0-22.4 0-35.2 6.4l-217.6 99.2-214.4-99.2z"  horiz-adv-x="1024" />

    
    <glyph glyph-name="sousuo6" unicode="&#60314;" d="M816 169.6l137.6-137.6c12.8-12.8 12.8-32 0-44.8l-44.8-44.8c-12.8-12.8-32-12.8-44.8 0l-134.4 134.4c-70.4-51.2-153.6-80-246.4-80-230.4 0-416 185.6-416 416s185.6 416 416 416 416-185.6 416-416c-3.2-89.6-32-172.8-83.2-243.2z m-336-105.6c195.2 0 352 156.8 352 352s-156.8 352-352 352-352-156.8-352-352 156.8-352 352-352z"  horiz-adv-x="1024" />

    
    <glyph glyph-name="shujubaobiao" unicode="&#60315;" d="M348.8 800c-6.4-3.2-9.6-3.2-16-6.4-163.2-70.4-272-230.4-272-412.8 0-246.4 201.6-448 448-448 182.4 0 345.6 112 416 278.4 0 3.2 3.2 6.4 3.2 6.4 6.4 16-3.2 35.2-19.2 41.6s-35.2-3.2-41.6-19.2c0-3.2-3.2-3.2-3.2-6.4-57.6-144-198.4-236.8-355.2-236.8-211.2 0-384 172.8-384 384 0 153.6 92.8 291.2 230.4 352 3.2 3.2 6.4 3.2 12.8 6.4 16 6.4 25.6 25.6 19.2 41.6-3.2 19.2-22.4 25.6-38.4 19.2z m195.2-384h352c-16 185.6-163.2 336-352 352v-352z m-32 416c246.4 0 448-201.6 448-448 0-19.2-12.8-32-32-32h-416c-19.2 0-32 12.8-32 32v416c0 19.2 12.8 32 32 32z"  horiz-adv-x="1024" />

    
    <glyph glyph-name="tishijinzhi" unicode="&#60316;" d="M160 448c0 67.2 19.2 131.2 54.4 188.8l-32 32c-12.8 12.8-12.8 32 0 44.8 12.8 12.8 32 12.8 44.8 0l48-48c3.2 0 3.2-3.2 3.2-3.2l556.8-556.8c12.8-12.8 12.8-32 0-44.8-12.8-12.8-32-12.8-44.8 0l-38.4 38.4h-659.2c-19.2 0-32 12.8-32 32s12.8 32 32 32c35.2 0 64 28.8 64 64v220.8z m64 0v-224c0-22.4-6.4-44.8-16-64h483.2l-428.8 428.8c-25.6-41.6-38.4-89.6-38.4-140.8z m576 0c0 160-128 288-288 288-51.2 0-99.2-12.8-144-38.4-16-9.6-35.2-3.2-44.8 12.8-9.6 16-3.2 35.2 12.8 44.8 54.4 32 112 48 176 48 195.2 0 352-156.8 352-352v-224c0-19.2-12.8-32-32-32s-32 12.8-32 32v220.8z m-704-288z m326.4-185.6c-12.8 12.8-12.8 32 0 44.8 12.8 12.8 32 12.8 44.8 0 12.8-12.8 28.8-19.2 44.8-19.2 16 0 32 6.4 44.8 19.2 12.8 12.8 32 12.8 44.8 0 12.8-12.8 12.8-32 0-44.8-22.4-25.6-57.6-38.4-89.6-38.4-35.2 0-67.2 12.8-89.6 38.4z"  horiz-adv-x="1024" />

    
    <glyph glyph-name="shuju" unicode="&#60317;" d="M160 288c-19.2 0-32-12.8-32-32v-128c0-19.2 12.8-32 32-32h64c19.2 0 32 12.8 32 32v128c0 19.2-12.8 32-32 32h-64z m0 64h64c54.4 0 96-41.6 96-96v-128c0-54.4-41.6-96-96-96h-64c-54.4 0-96 41.6-96 96v128c0 54.4 41.6 96 96 96z m320 128h64c54.4 0 96-41.6 96-96v-256c0-54.4-41.6-96-96-96h-64c-54.4 0-96 41.6-96 96v256c0 54.4 41.6 96 96 96z m0-64c-19.2 0-32-12.8-32-32v-256c0-19.2 12.8-32 32-32h64c19.2 0 32 12.8 32 32v256c0 19.2-12.8 32-32 32h-64z m320 320h64c54.4 0 96-41.6 96-96v-512c0-54.4-41.6-96-96-96h-64c-54.4 0-96 41.6-96 96v512c0 54.4 41.6 96 96 96z m0-64c-19.2 0-32-12.8-32-32v-512c0-19.2 12.8-32 32-32h64c19.2 0 32 12.8 32 32v512c0 19.2-12.8 32-32 32h-64z"  horiz-adv-x="1024" />

    
    <glyph glyph-name="tianjia5" unicode="&#60318;" d="M544 416h160c19.2 0 32-12.8 32-32s-12.8-32-32-32h-160v-160c0-19.2-12.8-32-32-32s-32 12.8-32 32v160h-160c-19.2 0-32 12.8-32 32s12.8 32 32 32h160v160c0 19.2 12.8 32 32 32s32-12.8 32-32v-160z m-32-480c-246.4 0-448 201.6-448 448s201.6 448 448 448 448-201.6 448-448-201.6-448-448-448z m0 64c211.2 0 384 172.8 384 384s-172.8 384-384 384-384-172.8-384-384 172.8-384 384-384z"  horiz-adv-x="1024" />

    
    <glyph glyph-name="tishi" unicode="&#60319;" d="M556.8 19.2c-12.8-12.8-28.8-19.2-44.8-19.2-16 0-32 6.4-44.8 19.2-12.8 12.8-32 12.8-44.8 0s-12.8-32 0-44.8c22.4-22.4 54.4-38.4 89.6-38.4 35.2 0 67.2 12.8 89.6 38.4 12.8 12.8 12.8 32 0 44.8-12.8 12.8-32 12.8-44.8 0zM928 160c-35.2 0-64 28.8-64 64v224c0 195.2-156.8 352-352 352s-352-156.8-352-352v-224c0-35.2-28.8-64-64-64-19.2 0-32-12.8-32-32s12.8-32 32-32h832c19.2 0 32 12.8 32 32s-12.8 32-32 32z m-720 0c9.6 19.2 16 41.6 16 64v224c0 160 128 288 288 288s288-128 288-288v-224c0-22.4 6.4-44.8 16-64h-608z"  horiz-adv-x="1024" />

    
    <glyph glyph-name="tubiaoshangshengqushi" unicode="&#60320;" d="M928 534.4v-182.4c0-19.2 12.8-32 32-32s32 12.8 32 32v224c0 35.2-28.8 64-64 64h-224c-19.2 0-32-12.8-32-32s12.8-32 32-32h176l-272-272-204.8 204.8c-6.4 6.4-16 9.6-22.4 9.6-9.6 0-16-3.2-22.4-9.6l-316.8-316.8c-12.8-12.8-12.8-32 0-44.8 12.8-12.8 32-12.8 44.8 0l294.4 294.4 204.8-204.8c6.4-6.4 16-9.6 22.4-9.6 9.6 0 16 3.2 22.4 9.6l297.6 297.6z"  horiz-adv-x="1024" />

    
    <glyph glyph-name="tubiaoxiajiangqushi" unicode="&#60321;" d="M886.4 160h-182.4c-19.2 0-32-12.8-32-32s12.8-32 32-32h224c35.2 0 64 28.8 64 64v224c0 19.2-12.8 32-32 32s-32-12.8-32-32v-172.8l-297.6 297.6c-6.4 6.4-16 9.6-22.4 9.6-9.6 0-16-3.2-22.4-9.6l-204.8-204.8-294.4 294.4c-12.8 12.8-32 12.8-44.8 0-12.8-12.8-12.8-32 0-44.8l316.8-316.8c6.4-6.4 16-9.6 22.4-9.6 9.6 0 16 3.2 22.4 9.6l204.8 204.8 278.4-281.6z"  horiz-adv-x="1024" />

    
    <glyph glyph-name="tubiaoyucebiao" unicode="&#60322;" d="M636.8 537.6c-9.6 0-16-3.2-22.4-9.6l-156.8-156.8-67.2 67.2c-6.4 6.4-16 9.6-22.4 9.6-9.6 0-16-3.2-22.4-9.6l-134.4-134.4c-12.8-12.8-12.8-32 0-44.8s32-12.8 44.8 0l112 112 67.2-67.2c6.4-6.4 16-9.6 22.4-9.6 9.6 0 16 3.2 22.4 9.6l156.8 156.8 67.2-67.2c6.4-6.4 16-9.6 22.4-9.6 9.6 0 16 3.2 22.4 9.6l89.6 89.6c12.8 12.8 12.8 32 0 44.8s-32 12.8-44.8 0l-67.2-67.2-67.2 67.2c-3.2 6.4-12.8 9.6-22.4 9.6z m259.2 102.4c0 19.2-12.8 32-32 32h-704c-19.2 0-32-12.8-32-32v-512c0-19.2 12.8-32 32-32h704c19.2 0 32 12.8 32 32v512z m64 0v-512c0-54.4-41.6-96-96-96h-704c-54.4 0-96 41.6-96 96v512c0 54.4 41.6 96 96 96h704c54.4 0 96-41.6 96-96z"  horiz-adv-x="1024" />

    
    <glyph glyph-name="shanchu4" unicode="&#60323;" d="M416 512c-19.2 0-32-12.8-32-32v-320c0-19.2 12.8-32 32-32s32 12.8 32 32v320c0 19.2-12.8 32-32 32zM928 704h-224v32c0 54.4-41.6 96-96 96h-192c-54.4 0-96-41.6-96-96v-32h-224c-19.2 0-32-12.8-32-32s12.8-32 32-32h64v-608c0-54.4 41.6-96 96-96h512c54.4 0 96 41.6 96 96v608h64c19.2 0 32 12.8 32 32s-12.8 32-32 32z m-544 32c0 19.2 12.8 32 32 32h192c19.2 0 32-12.8 32-32v-32h-256v32z m416-704c0-19.2-12.8-32-32-32h-512c-19.2 0-32 12.8-32 32v608h576v-608zM608 512c-19.2 0-32-12.8-32-32v-320c0-19.2 12.8-32 32-32s32 12.8 32 32v320c0 19.2-12.8 32-32 32z"  horiz-adv-x="1024" />

    
    <glyph glyph-name="tupian" unicode="&#60324;" d="M288 416c54.4 0 96 41.6 96 96s-41.6 96-96 96-96-41.6-96-96 41.6-96 96-96z m0 128c19.2 0 32-12.8 32-32s-12.8-32-32-32-32 12.8-32 32 12.8 32 32 32zM864 736h-704c-54.4 0-96-41.6-96-96v-512c0-54.4 41.6-96 96-96h704c54.4 0 96 41.6 96 96v512c0 54.4-41.6 96-96 96z m-736-608v512c0 19.2 12.8 32 32 32h704c19.2 0 32-12.8 32-32v-364.8l-169.6 169.6c-38.4 38.4-99.2 38.4-134.4 0l-348.8-348.8h-83.2c-19.2 0-32 12.8-32 32z m736-32h-531.2l304 304c12.8 12.8 32 12.8 44.8 0l214.4-214.4v-57.6c0-19.2-12.8-32-32-32z"  horiz-adv-x="1024" />

    
    <glyph glyph-name="tianjiawenjian" unicode="&#60325;" d="M544 448c0 19.2-12.8 32-32 32s-32-12.8-32-32v-128h-128c-19.2 0-32-12.8-32-32s12.8-32 32-32h128v-128c0-19.2 12.8-32 32-32s32 12.8 32 32v128h128c19.2 0 32 12.8 32 32s-12.8 32-32 32h-128v128zM854.4 598.4l-224 224c-6.4 6.4-12.8 9.6-22.4 9.6h-352c-54.4 0-96-41.6-96-96v-704c0-54.4 41.6-96 96-96h512c54.4 0 96 41.6 96 96v544c0 9.6-3.2 16-9.6 22.4z m-246.4 156.8l179.2-179.2h-179.2v179.2z m192-723.2c0-19.2-12.8-32-32-32h-512c-19.2 0-32 12.8-32 32v704c0 19.2 12.8 32 32 32h288v-192c0-35.2 28.8-64 64-64h192v-480z"  horiz-adv-x="1024" />

    
    <glyph glyph-name="tupianfangda" unicode="&#60326;" d="M512 448h128c19.2 0 32-12.8 32-32s-12.8-32-32-32h-128v-128c0-19.2-12.8-32-32-32s-32 12.8-32 32v128h-128c-19.2 0-32 12.8-32 32s12.8 32 32 32h128v128c0 19.2 12.8 32 32 32s32-12.8 32-32v-128z m214.4-368c-70.4-51.2-153.6-80-246.4-80-230.4 0-416 185.6-416 416s185.6 416 416 416 416-185.6 416-416c0-92.8-28.8-176-80-246.4l134.4-134.4c12.8-12.8 12.8-32 0-44.8l-44.8-44.8c-12.8-12.8-32-12.8-44.8 0l-134.4 134.4z m-246.4-16c195.2 0 352 156.8 352 352s-156.8 352-352 352-352-156.8-352-352 156.8-352 352-352z"  horiz-adv-x="1024" />

    
    <glyph glyph-name="tuichu2" unicode="&#60327;" d="M195.2 700.8c12.8 12.8 32 12.8 44.8 0 12.8-12.8 12.8-32 0-44.8-73.6-70.4-115.2-169.6-115.2-272 0-211.2 172.8-384 384-384s384 172.8 384 384c0 108.8-44.8 211.2-124.8 281.6-12.8 12.8-12.8 32-3.2 44.8 12.8 12.8 32 12.8 44.8 3.2 92.8-83.2 144-201.6 144-329.6 0-246.4-201.6-448-448-448s-448 201.6-448 448c6.4 121.6 54.4 233.6 137.6 316.8z m316.8 131.2c19.2 0 32-12.8 32-32v-384c0-19.2-12.8-32-32-32s-32 12.8-32 32v384c0 19.2 12.8 32 32 32z"  horiz-adv-x="1024" />

    
    <glyph glyph-name="wenjian" unicode="&#60328;" d="M544 768h-288c-19.2 0-32-12.8-32-32v-704c0-19.2 12.8-32 32-32h512c19.2 0 32 12.8 32 32v480h-192c-35.2 0-64 28.8-64 64v192z m64-12.8v-179.2h179.2l-179.2 179.2z m-352 76.8h352c9.6 0 16-3.2 22.4-9.6l224-224c6.4-6.4 9.6-12.8 9.6-22.4v-544c0-54.4-41.6-96-96-96h-512c-54.4 0-96 41.6-96 96v704c0 54.4 41.6 96 96 96z m64-352h160c19.2 0 32-12.8 32-32s-12.8-32-32-32h-160c-19.2 0-32 12.8-32 32s12.8 32 32 32z m0-128h384c19.2 0 32-12.8 32-32s-12.8-32-32-32h-384c-19.2 0-32 12.8-32 32s12.8 32 32 32z m0-128h384c19.2 0 32-12.8 32-32s-12.8-32-32-32h-384c-19.2 0-32 12.8-32 32s12.8 32 32 32z"  horiz-adv-x="1024" />

    
    <glyph glyph-name="xiazai4" unicode="&#60329;" d="M544 252.8l131.2 131.2c12.8 12.8 32 12.8 44.8 0 12.8-12.8 12.8-32 0-44.8l-156.8-156.8c-25.6-25.6-64-25.6-89.6 0l-156.8 156.8c-12.8 12.8-12.8 32 0 44.8 12.8 12.8 32 12.8 44.8 0l121.6-121.6V736c0 19.2 12.8 32 32 32s32-12.8 32-32v-483.2z m288 35.2c0 19.2 12.8 32 32 32s32-12.8 32-32v-160c0-54.4-41.6-96-96-96h-576c-54.4 0-96 41.6-96 96v160c0 19.2 12.8 32 32 32s32-12.8 32-32v-160c0-19.2 12.8-32 32-32h576c19.2 0 32 12.8 32 32v160z"  horiz-adv-x="1024" />

    
    <glyph glyph-name="tupiansuoxiao" unicode="&#60330;" d="M816 169.6l137.6-137.6c12.8-12.8 12.8-32 0-44.8l-44.8-44.8c-12.8-12.8-32-12.8-44.8 0l-134.4 134.4c-70.4-51.2-153.6-80-246.4-80-230.4 0-416 185.6-416 416s185.6 416 416 416 416-185.6 416-416c-3.2-89.6-32-172.8-83.2-243.2z m-336-105.6c195.2 0 352 156.8 352 352s-156.8 352-352 352-352-156.8-352-352 156.8-352 352-352z m192 352c0-19.2-12.8-32-32-32h-320c-19.2 0-32 12.8-32 32s12.8 32 32 32h320c19.2 0 32-12.8 32-32z"  horiz-adv-x="1024" />

    
    <glyph glyph-name="xiangqian" unicode="&#60331;" d="M851.2 416h-787.2c-19.2 0-32-12.8-32-32s12.8-32 32-32h787.2l-329.6-329.6c-12.8-12.8-12.8-32 0-44.8 12.8-12.8 32-12.8 44.8 0l361.6 361.6c25.6 25.6 25.6 64 0 89.6l-361.6 361.6c-12.8 12.8-32 12.8-44.8 0-12.8-12.8-12.8-32 0-44.8l329.6-329.6z"  horiz-adv-x="1024" />

    
    <glyph glyph-name="xianghou" unicode="&#60332;" d="M172.8 352h787.2c19.2 0 32 12.8 32 32s-12.8 32-32 32h-787.2l329.6 329.6c12.8 12.8 12.8 32 0 44.8-12.8 12.8-32 12.8-44.8 0l-361.6-361.6c-25.6-25.6-25.6-64 0-89.6l361.6-361.6c12.8-12.8 32-12.8 44.8 0 12.8 12.8 12.8 32 0 44.8l-329.6 329.6z"  horiz-adv-x="1024" />

    
    <glyph glyph-name="xunzhang" unicode="&#60333;" d="M345.6 236.8l-22.4-211.2 169.6 96c9.6 6.4 22.4 6.4 32 0l169.6-96-22.4 211.2c-48-28.8-105.6-44.8-166.4-44.8s-108.8 16-160 44.8z m-57.6 48c-57.6 57.6-96 137.6-96 227.2 0 176 144 320 320 320s320-144 320-320c0-89.6-35.2-169.6-96-227.2l32-313.6c3.2-25.6-25.6-44.8-48-32l-208 118.4-208-118.4c-22.4-12.8-51.2 6.4-48 32l32 313.6z m224-28.8c140.8 0 256 115.2 256 256s-115.2 256-256 256-256-115.2-256-256 115.2-256 256-256z"  horiz-adv-x="1024" />

    
    <glyph glyph-name="xinyongqia" unicode="&#60334;" d="M864 736h-704c-54.4 0-96-41.6-96-96v-512c0-54.4 41.6-96 96-96h704c54.4 0 96 41.6 96 96v512c0 54.4-41.6 96-96 96z m32-608c0-19.2-12.8-32-32-32h-704c-19.2 0-32 12.8-32 32v352h768v-352z m0 416h-768v96c0 19.2 12.8 32 32 32h704c19.2 0 32-12.8 32-32v-96zM224 224h128c19.2 0 32 12.8 32 32s-12.8 32-32 32h-128c-19.2 0-32-12.8-32-32s12.8-32 32-32z"  horiz-adv-x="1024" />

    
    <glyph glyph-name="yichu" unicode="&#60335;" d="M512-64c-246.4 0-448 201.6-448 448s201.6 448 448 448 448-201.6 448-448-201.6-448-448-448z m0 64c211.2 0 384 172.8 384 384s-172.8 384-384 384-384-172.8-384-384 172.8-384 384-384z m224 384c0-19.2-12.8-32-32-32h-384c-19.2 0-32 12.8-32 32s12.8 32 32 32h384c19.2 0 32-12.8 32-32z"  horiz-adv-x="1024" />

    
    <glyph glyph-name="yejiguanli" unicode="&#60336;" d="M480 537.6l-80 80c-12.8 12.8-12.8 32 0 44.8 12.8 12.8 32 12.8 44.8 0l67.2-67.2 67.2 67.2c12.8 12.8 32 12.8 44.8 0 12.8-12.8 12.8-32 0-44.8l-80-80v-25.6h64c19.2 0 32-12.8 32-32s-12.8-32-32-32h-64v-64c0-19.2-12.8-32-32-32s-32 12.8-32 32v64h-64c-19.2 0-32 12.8-32 32s12.8 32 32 32h64v25.6z m-128-249.6h320c19.2 0 32-12.8 32-32s-12.8-32-32-32h-320c-19.2 0-32 12.8-32 32s12.8 32 32 32z m0-128h320c19.2 0 32-12.8 32-32s-12.8-32-32-32h-320c-19.2 0-32 12.8-32 32s12.8 32 32 32z m-96 608c-19.2 0-32-12.8-32-32v-704c0-19.2 12.8-32 32-32h512c19.2 0 32 12.8 32 32v704c0 19.2-12.8 32-32 32h-512z m0 64h512c54.4 0 96-41.6 96-96v-704c0-54.4-41.6-96-96-96h-512c-54.4 0-96 41.6-96 96v704c0 54.4 41.6 96 96 96z"  horiz-adv-x="1024" />

    
    <glyph glyph-name="yejishenhe" unicode="&#60337;" d="M480 313.6l-80 80c-12.8 12.8-12.8 32 0 44.8 12.8 12.8 32 12.8 44.8 0l67.2-67.2 67.2 67.2c12.8 12.8 32 12.8 44.8 0 12.8-12.8 12.8-32 0-44.8l-80-80v-25.6h64c19.2 0 32-12.8 32-32s-12.8-32-32-32h-64v-64c0-19.2-12.8-32-32-32s-32 12.8-32 32v64h-64c-19.2 0-32 12.8-32 32s12.8 32 32 32h64v25.6z m64 454.4h-288c-19.2 0-32-12.8-32-32v-704c0-19.2 12.8-32 32-32h512c19.2 0 32 12.8 32 32v480h-192c-35.2 0-64 28.8-64 64v192z m64-12.8v-179.2h179.2l-179.2 179.2z m-352 76.8h352c9.6 0 16-3.2 22.4-9.6l224-224c6.4-6.4 9.6-12.8 9.6-22.4v-544c0-54.4-41.6-96-96-96h-512c-54.4 0-96 41.6-96 96v704c0 54.4 41.6 96 96 96z"  horiz-adv-x="1024" />

    
    <glyph glyph-name="yibantishi" unicode="&#60338;" d="M512-64c-246.4 0-448 201.6-448 448s201.6 448 448 448 448-201.6 448-448-201.6-448-448-448z m0 64c211.2 0 384 172.8 384 384s-172.8 384-384 384-384-172.8-384-384 172.8-384 384-384z m0 544c-19.2 0-32 12.8-32 32s12.8 32 32 32 32-12.8 32-32-12.8-32-32-32z m0-64c19.2 0 32-12.8 32-32v-256c0-19.2-12.8-32-32-32s-32 12.8-32 32v256c0 19.2 12.8 32 32 32z"  horiz-adv-x="1024" />

    
    <glyph glyph-name="youshangjiao" unicode="&#60339;" d="M780.8 672l-579.2-579.2c-12.8-12.8-12.8-32 0-44.8 12.8-12.8 32-12.8 44.8 0l572.8 572.8v-492.8c0-19.2 12.8-32 32-32s32 12.8 32 32v544c0 35.2-28.8 64-64 64h-544c-19.2 0-32-12.8-32-32s12.8-32 32-32h505.6z"  horiz-adv-x="1024" />

    
    <glyph glyph-name="zuoshangjiao1" unicode="&#60340;" d="M268.8 672l579.2-579.2c12.8-12.8 12.8-32 0-44.8s-32-12.8-44.8 0l-579.2 579.2v-499.2c0-19.2-12.8-32-32-32s-32 12.8-32 32v544c0 35.2 28.8 64 64 64h544c19.2 0 32-12.8 32-32s-12.8-32-32-32h-499.2z"  horiz-adv-x="1024" />

    
    <glyph glyph-name="manyidu1" unicode="&#60341;" d="M512-64c-246.4 0-448 201.6-448 448s201.6 448 448 448 448-201.6 448-448-201.6-448-448-448z m0 64c211.2 0 384 172.8 384 384s-172.8 384-384 384-384-172.8-384-384 172.8-384 384-384z m-166.4 233.6c3.2-3.2 6.4-6.4 6.4-9.6 41.6-41.6 99.2-67.2 160-67.2s118.4 22.4 160 67.2c3.2 3.2 6.4 6.4 6.4 9.6 12.8 12.8 9.6 32-3.2 44.8-12.8 12.8-32 9.6-44.8-3.2l-6.4-6.4c-28.8-28.8-70.4-44.8-112-44.8s-83.2 16-112 48l-6.4 6.4c-12.8 12.8-32 12.8-44.8 3.2-12.8-12.8-16-35.2-3.2-48z m6.4 310.4c19.2 0 32-12.8 32-32v-32c0-19.2-12.8-32-32-32s-32 12.8-32 32v32c0 19.2 12.8 32 32 32z m320 0c19.2 0 32-12.8 32-32v-32c0-19.2-12.8-32-32-32s-32 12.8-32 32v32c0 19.2 12.8 32 32 32z"  horiz-adv-x="1024" />

    
    <glyph glyph-name="RectangleCopy197" unicode="&#60172;" d="M760.832 725.333333H263.168A92.629333 92.629333 0 0 1 170.666667 632.874667v-497.621334c0-50.986667 41.514667-92.501333 92.586666-92.501333h268.8a21.333333 21.333333 0 1 1 0 42.666667h-268.8a49.92 49.92 0 0 0-49.92 49.834666V632.832A49.92 49.92 0 0 0 263.253333 682.666667H760.746667A49.92 49.92 0 0 0 810.666667 632.746667v-311.466667a21.333333 21.333333 0 0 1 42.666666 0v311.466667a92.586667 92.586667 0 0 1-92.501333 92.586666M383.573333 596.906667a21.333333 21.333333 0 0 1-21.333333-21.333334v-87.466666c0-81.706667 66.986667-148.138667 149.333333-148.138667s149.333333 66.432 149.333334 148.096V575.573333a21.333333 21.333333 0 0 1-42.666667 0v-87.466666c0-58.112-47.872-105.386667-106.666667-105.386667s-106.666667 47.274667-106.666666 105.386667V575.573333a21.333333 21.333333 0 0 1-21.333334 21.333334M830.677333 257.322667h-218.666666a21.333333 21.333333 0 0 1 0-42.666667h218.666666a21.333333 21.333333 0 0 1 0 42.666667M830.677333 171.989333h-218.666666a21.333333 21.333333 0 0 1 0-42.666666h218.666666a21.333333 21.333333 0 0 1 0 42.666666M830.677333 84.906667h-218.666666a21.333333 21.333333 0 0 1 0-42.666667h218.666666a21.333333 21.333333 0 0 1 0 42.666667"  horiz-adv-x="1024" />

    
    <glyph glyph-name="RectangleCopy198" unicode="&#60173;" d="M533.33632 84.778667H308.610987C279.64032 84.778667 256.002987 108.245333 256.002987 137.130667V436.352l256 240.298667 256-240.298667v-116.138667a21.333333 21.333333 0 1 1 42.666666 0V396.330667l6.741334-6.357334a21.077333 21.077333 0 0 1 14.592-5.76 20.949333 20.949333 0 0 1 15.530666 6.741334 21.248 21.248 0 0 1-0.938666 30.122666l-318.208 298.666667A20.906667 20.906667 0 0 1 512.002987 725.248a20.906667 20.906667 0 0 1-16.384-5.504l-318.208-298.666667a21.248 21.248 0 0 1-0.938667-30.122666 20.949333 20.949333 0 0 1 15.530667-6.741334 21.077333 21.077333 0 0 1 14.592 5.76L213.33632 396.330667v-259.2A95.274667 95.274667 0 0 1 308.610987 42.112H533.33632a21.333333 21.333333 0 0 1 0 42.666667M832.002987 215.338667a21.333333 21.333333 0 0 1 0 42.666666H678.018987a106.752 106.752 0 0 1-98.474667 147.541334H415.917653l52.522667 52.48a21.418667 21.418667 0 0 1-30.208 30.208L350.29632 400.213333c-0.170667-0.170667-0.213333-0.426667-0.384-0.554666a21.333333 21.333333 0 0 1 14.592-36.778667h215.082667c35.285333 0 64-28.714667 64-64s-28.714667-64-64-64h-172.373334a21.333333 21.333333 0 0 1 0-42.666667h172.373334c24.832 0 47.402667 8.874667 65.536 23.125334H832.002987zM832.002987 172.672H613.33632a21.333333 21.333333 0 0 1 0-42.666667H832.002987a21.333333 21.333333 0 0 1 0 42.666667M832.002987 85.546667H613.33632a21.333333 21.333333 0 0 1 0-42.666667H832.002987a21.333333 21.333333 0 0 1 0 42.666667"  horiz-adv-x="1024" />

    
    <glyph glyph-name="RectangleCopy199" unicode="&#60174;" d="M895.488 342.826667a20.053333 20.053333 0 0 1-24.96 13.696l-67.541333-19.584a19.797333 19.797333 0 0 1-10.922667-8.234667 20.138667 20.138667 0 0 1-4.394667-8.234667 274.133333 274.133333 0 0 0-37.504-87.850666 19.968 19.968 0 0 1 1.365334-23.424l29.013333-49.92-43.52-43.52-52.010667 30.037333a19.84 19.84 0 0 1-15.488 1.834667 19.541333 19.541333 0 0 1-9.984-2.474667 281.557333 281.557333 0 0 0-83.498666-33.365333 20.053333 20.053333 0 0 1-17.152-14.762667l-15.530667-57.898667H481.834667l-15.573334 58.453334a20.138667 20.138667 0 0 1-17.152 14.72l-0.341333 0.213333a279.296 279.296 0 0 0-86.442667 36.48c-1.194667 0.768-2.517333 0.981333-3.797333 1.493333-0.725333 0.213333-1.365333 0.597333-2.133333 0.768a18.944 18.944 0 0 1-6.912 0.469334c-0.128 0-0.256 0.085333-0.341334 0a19.413333 19.413333 0 0 1-9.813333-3.84l-49.664-28.629334-43.477333 43.52 30.336 52.309334a19.925333 19.925333 0 0 1-2.474667 23.168c-0.128 0.341333-0.128 0.597333-0.298667 0.853333a275.626667 275.626667 0 0 0-33.365333 81.365333c-0.213333 0.981333-0.853333 1.706667-1.237333 2.688a19.797333 19.797333 0 0 1-13.738667 13.909334l-57.130667 15.530666V414.208l57.173334 15.530667a20.053333 20.053333 0 0 1 14.634666 17.237333c0.128 0.426667 0.597333 0.597333 0.682667 1.109333a274.048 274.048 0 0 0 36.010667 84.48c0.853333 1.28 1.109333 2.730667 1.621333 4.181334 0.426667 1.024 0.938667 1.92 1.152 2.986666 0.085333 0.426667 0.042667 0.853333 0.085333 1.28a19.712 19.712 0 0 1-2.133333 13.269334l-29.994667 52.053333 43.52 43.434667 52.352-30.378667a19.541333 19.541333 0 0 1 10.069334-2.730667 20.096 20.096 0 0 1 10.794666 3.498667c1.066667 0.426667 2.218667 0.256 3.242667 0.938667a279.381333 279.381333 0 0 0 82.944 33.706666 19.669333 19.669333 0 0 1 6.016 2.688 18.346667 18.346667 0 0 1 5.034667 4.565334 19.285333 19.285333 0 0 1 2.133333 3.157333c0.768 1.408 2.218667 2.304 2.645333 3.968l15.573334 58.496h61.525333l15.530667-57.941333c0.469333-1.706667 2.005333-2.688 2.901333-4.266667a14.848 14.848 0 0 1 1.706667-2.56c1.749333-2.133333 3.456-3.84 5.888-5.12a20.906667 20.906667 0 0 1 5.546666-2.389333c31.189333-6.826667 60.714667-18.858667 87.808-35.669334 0.597333-0.341333 1.28-0.213333 1.834667-0.554666a20.053333 20.053333 0 0 1 10.666667-3.370667 19.84 19.84 0 0 1 10.112 2.816l52.352 30.293333 43.52-43.477333L751.146667 553.472a19.669333 19.669333 0 0 1-0.341334-18.602667c0.469333-1.365333 0.725333-2.730667 1.493334-3.968 16.213333-25.642667 27.946667-53.589333 34.986666-82.816 0.213333-1.152 1.28-1.706667 1.706667-2.730666a19.968 19.968 0 0 1 13.952-15.530667l67.541333-19.584a20.181333 20.181333 0 0 1 11.221334 38.741333l-58.026667 16.768a314.112 314.112 0 0 1-32.213333 76.885334l32.341333 56.064a19.925333 19.925333 0 0 1-4.522667 25.045333c-0.426667 0.554667-0.682667 1.28-1.194666 1.792L757.76 685.866667c-0.512 0.554667-1.237333 0.768-1.834667 1.28a19.754667 19.754667 0 0 1-25.002666 4.394666l-56.448-32.725333a318.293333 318.293333 0 0 1-79.616 32.426667l-16.597334 61.781333a20.010667 20.010667 0 0 1-20.693333 14.506667c-0.768 0.085333-1.493333 0.469333-2.346667 0.469333h-85.333333c-0.810667 0-1.536-0.384-2.346667-0.426667a19.882667 19.882667 0 0 1-20.650666-14.549333l-16.64-62.549333a318.165333 318.165333 0 0 1-75.733334-30.933334l-56.704 32.853334a19.797333 19.797333 0 0 1-25.002666-4.394667c-0.597333-0.554667-1.28-0.768-1.877334-1.28L210.602667 626.432c-0.597333-0.597333-0.810667-1.365333-1.28-2.048a19.84 19.84 0 0 1-4.437334-24.832l32.298667-56.021333a313.301333 313.301333 0 0 1-32.853333-77.781334l-61.44-16.64a19.882667 19.882667 0 0 1-14.464-20.821333c-0.085333-0.768-0.426667-1.408-0.426667-2.218667v-85.333333c0-0.768 0.341333-1.450667 0.426667-2.176a19.882667 19.882667 0 0 1 14.421333-20.821333l61.568-16.682667c7.168-26.581333 17.578667-51.968 31.36-75.818667L203.52 169.472a19.925333 19.925333 0 0 1 4.437333-24.96c0.512-0.597333 0.725333-1.28 1.28-1.834667l60.330667-60.330666c0.853333-0.853333 1.92-1.28 2.858667-1.962667 3.84-3.84 8.618667-6.570667 13.909333-6.570667 3.413333 0 6.869333 0.896 10.026667 2.730667l55.978666 32.256a318.549333 318.549333 0 0 1 77.909334-32.597333l16.64-62.421334A20.096 20.096 0 0 1 466.346667-1.194667c0.682667 0 1.408 0.213333 2.133333 0.256 0.469333 0 0.896-0.256 1.408-0.256h85.333333c0.512 0 0.938667 0.256 1.450667 0.256 0.725333-0.085333 1.450667-0.256 2.133333-0.256a20.181333 20.181333 0 0 1 19.456 14.933334l16.64 61.781333a321.152 321.152 0 0 1 77.354667 31.104l58.026667-33.493333a20.181333 20.181333 0 0 1 10.026666-2.730667 19.882667 19.882667 0 0 1 13.781334 6.442667c0.981333 0.725333 2.133333 1.109333 2.986666 2.005333l60.330667 60.330667c0.554667 0.597333 0.768 1.28 1.28 1.877333a19.797333 19.797333 0 0 1 4.437333 24.96l-32.768 56.533333a316.074667 316.074667 0 0 1 33.28 78.506667l58.112 16.853333a20.138667 20.138667 0 0 1 13.738667 24.96M618.368 490.069333H399.701333a21.333333 21.333333 0 0 1 0-42.666666h218.666667a21.333333 21.333333 0 0 1 0 42.666666M618.368 404.736H399.701333a21.333333 21.333333 0 0 1 0-42.666667h218.666667a21.333333 21.333333 0 0 1 0 42.666667M618.368 317.610667H399.701333a21.333333 21.333333 0 0 1 0-42.666667h218.666667a21.333333 21.333333 0 0 1 0 42.666667"  horiz-adv-x="1024" />

    
    <glyph glyph-name="RectangleCopy200" unicode="&#60175;" d="M553.770667 135.594667H288.938667a21.333333 21.333333 0 0 1 0-42.666667h264.832a21.333333 21.333333 0 0 1 0 42.666667M890.88 354.730667c-21.546667 97.706667-109.909333 168.618667-210.133333 168.618666H243.498667l165.546666 165.546667A21.333333 21.333333 0 0 1 378.88 719.061333L178.901333 519.168c-0.341333-0.384-0.426667-0.810667-0.768-1.194667A20.992 20.992 0 0 1 170.666667 502.016a21.333333 21.333333 0 0 1 21.333333-21.333333h488.746667a173.482667 173.482667 0 0 0 168.448-135.125334 21.333333 21.333333 0 0 1 41.685333 9.173334M852.437333 288h-218.666666a21.333333 21.333333 0 0 1 0-42.666667h218.666666a21.333333 21.333333 0 0 1 0 42.666667M852.437333 202.666667h-218.666666a21.333333 21.333333 0 0 1 0-42.666667h218.666666a21.333333 21.333333 0 0 1 0 42.666667M852.437333 115.541333h-218.666666a21.333333 21.333333 0 0 1 0-42.666666h218.666666a21.333333 21.333333 0 0 1 0 42.666666"  horiz-adv-x="1024" />

    
    <glyph glyph-name="RectangleCopy201" unicode="&#60176;" d="M760.32 329.856a21.12 21.12 0 0 1-29.738667 4.821333 194.346667 194.346667 0 0 0-192-18.602666 21.290667 21.290667 0 0 1-28.245333-10.496c-0.341333-0.768-0.256-1.493333-0.512-2.133334l-203.989333-203.989333a54.229333 54.229333 0 0 0-76.672 76.629333l209.237333 209.322667a21.034667 21.034667 0 0 1 5.76 25.002667 191.872 191.872 0 0 0-17.536 80.298666c0 105.813333 86.101333 192 192 192 16.981333 0 33.365333-2.986667 49.450667-7.296l-97.706667-97.706666a96.938667 96.938667 0 0 1 68.48-165.461334c25.898667 0 50.218667 10.069333 68.522667 28.416l96.768 96.768c3.84-15.232 6.485333-30.762667 6.485333-46.72 0-11.776-1.109333-23.637333-3.242667-35.370666a21.333333 21.333333 0 1 1 41.984-7.637334c2.56 14.208 3.925333 28.672 3.925334 43.008 0 31.061333-6.016 61.354667-17.92 89.856a19.968 19.968 0 0 1-6.186667 8.021334c-0.597333 0.810667-0.896 1.706667-1.621333 2.432a21.333333 21.333333 0 0 1-30.165334 0l-120.192-120.192c-20.522667-20.48-56.192-20.48-76.672 0a54.314667 54.314667 0 0 0 0 76.714666L720.64 667.648a21.290667 21.290667 0 0 1 0 30.165333c-1.194667 1.237333-2.730667 1.877333-4.138667 2.773334a20.565333 20.565333 0 0 1-8.661333 7.04 231.936 231.936 0 0 1-89.258667 17.706666 234.922667 234.922667 0 0 1-230.016-281.557333c2.56-12.586667 6.485333-24.789333 11.093334-36.778667L198.997333 206.293333a97.024 97.024 0 0 1 0-136.96A96.426667 96.426667 0 0 1 267.477333 40.874667c24.746667 0 49.621333 9.429333 68.522667 28.373333l201.386667 201.386667a233.770667 233.770667 0 0 1 218.112 29.44 21.248 21.248 0 0 1 4.821333 29.738666M830.122667 256H609.706667a21.333333 21.333333 0 0 1 0-42.666667h220.458666a21.333333 21.333333 0 0 1 0 42.666667M830.122667 170.666667h-218.666667a21.333333 21.333333 0 0 1 0-42.666667h218.666667a21.333333 21.333333 0 0 1 0 42.666667M830.122667 83.541333h-218.666667a21.333333 21.333333 0 0 1 0-42.666666h218.666667a21.333333 21.333333 0 0 1 0 42.666666"  horiz-adv-x="1024" />

    
    <glyph glyph-name="RectangleCopy202" unicode="&#60177;" d="M639.682873 236.363319a21.330249 21.330249 0 0 1 21.330249-21.330249h218.635056a21.330249 21.330249 0 0 1 0 42.660498H661.013122a21.330249 21.330249 0 0 1-21.330249-21.330249M879.648178 172.372571H661.013122a21.330249 21.330249 0 0 1 0-42.660499h218.635056a21.330249 21.330249 0 0 1 0 42.660499M879.648178 85.302493H661.013122a21.330249 21.330249 0 0 1 0-42.660498h218.635056a21.330249 21.330249 0 0 1 0 42.660498M579.275606 85.302493h-392.903192L518.86834 661.347207l203.61856-350.370676a21.202268 21.202268 0 1 1 39.162338 6.057791l37.62656 117.273711a21.244928 21.244928 0 0 1-13.779341 26.790793 21.202268 21.202268 0 0 1-26.790793-13.822001l-23.463274-73.205416L537.297676 714.587509a21.330249 21.330249 0 0 1-36.943992-0.04266l-369.439919-639.90748A21.330249 21.330249 0 0 1 149.385761 42.641995h429.847185a21.330249 21.330249 0 0 1 0 42.660498M612.806758 273.26465a21.330249 21.330249 0 0 1 0 42.660499h-70.773767v3.754124l62.881575 59.383414a21.37291 21.37291 0 0 1-29.307762 31.014183l-56.39718-53.282963-56.4825 53.325623a21.244928 21.244928 0 1 1-29.222442-31.056843l65.86781-62.156346v-0.981192H424.631299a21.330249 21.330249 0 0 1 0-42.660499h74.741193v-22.055477H424.631299a21.330249 21.330249 0 1 1 0-42.660499h74.741193v-51.192598a21.330249 21.330249 0 1 1 42.660499 0v51.192598h70.816428a21.330249 21.330249 0 0 1 0 42.660499h-70.816428v22.055477h70.816428z"  horiz-adv-x="1024" />

    
    <glyph glyph-name="RectangleCopy203" unicode="&#60178;" d="M533.333333 84.736H308.608C279.637333 84.736 256 108.202667 256 137.088V436.352l256 240.256 256-240.256v-116.181333a21.333333 21.333333 0 1 1 42.666667 0V396.330667l6.741333-6.357334a21.077333 21.077333 0 0 1 14.592-5.76 20.949333 20.949333 0 0 1 15.530667 6.741334 21.248 21.248 0 0 1-0.938667 30.122666l-318.208 298.666667a20.821333 20.821333 0 0 1-16.341333 5.504 20.906667 20.906667 0 0 1-16.384-5.504l-318.250667-298.666667a21.248 21.248 0 0 1-0.938667-30.122666 20.949333 20.949333 0 0 1 15.530667-6.741334 21.077333 21.077333 0 0 1 14.592 5.76L213.333333 396.330667v-259.242667A95.274667 95.274667 0 0 1 308.608 42.069333H533.333333a21.333333 21.333333 0 0 1 0 42.666667M471.125333 490.837333a21.333333 21.333333 0 0 1 0-42.666666h87.125334a21.333333 21.333333 0 0 1 0 42.666666h-87.125334zM599.125333 234.837333c0-11.733333-9.6-21.333333-21.333333-21.333333H448a21.376 21.376 0 0 0-21.333333 21.333333v149.333334h172.458666v-149.333334z m231.125334 23.082667h-188.458667v126.293333h19.541333a21.333333 21.333333 0 0 1 0 42.666667H364.458667a21.333333 21.333333 0 0 1 0-42.666667H384v-149.333333c0-35.328 28.714667-64 64-64h129.792c28.416 0 52.266667 18.688 60.629333 44.373333h191.829334a21.333333 21.333333 0 0 1 0 42.666667zM830.293333 172.586667h-212.48a21.333333 21.333333 0 1 1 0-42.666667h212.48a21.333333 21.333333 0 0 1 0 42.666667M830.293333 85.504h-218.709333a21.333333 21.333333 0 0 1 0-42.666667h218.666667a21.333333 21.333333 0 0 1 0 42.666667"  horiz-adv-x="1024" />

    
    <glyph glyph-name="RectangleCopy204" unicode="&#60179;" d="M832 725.333333a21.333333 21.333333 0 0 1-21.333333-21.333333V151.125333a21.333333 21.333333 0 0 1 42.666666 0V704a21.333333 21.333333 0 0 1-21.333333 21.333333M619.818667 129.792a21.333333 21.333333 0 0 1 21.333333 21.333333V576a21.333333 21.333333 0 0 1-42.666667 0v-424.874667a21.333333 21.333333 0 0 1 21.333334-21.333333M405.632 131.584a21.333333 21.333333 0 0 1 21.333333 21.333333v298.666667a21.333333 21.333333 0 0 1-42.666666 0v-298.666667a21.333333 21.333333 0 0 1 21.333333-21.333333M192 129.749333a21.333333 21.333333 0 0 1 21.333333 21.333334v170.709333a21.333333 21.333333 0 0 1-42.666666 0v-170.709333a21.333333 21.333333 0 0 1 21.333333-21.333334M832 87.125333h-640a21.333333 21.333333 0 0 1 0-42.666666h640a21.333333 21.333333 0 0 1 0 42.666666"  horiz-adv-x="1024" />

    
    <glyph glyph-name="RectangleCopy205" unicode="&#60180;" d="M511.380053 260.096a21.333333 21.333333 0 0 1-21.333333-21.333333v-66.773334a257.024 257.024 0 0 0-188.416 106.112 254.293333 254.293333 0 0 0-44.117333 190.890667c3.712 22.272 11.178667 43.093333 20.224 63.104l46.805333-34.133333a21.333333 21.333333 0 0 1 25.173333 34.517333l-51.2 37.376a255.189333 255.189333 0 0 0 62.805334 65.28c115.029333 81.92 275.2 55.210667 357.12-59.648 1.536-2.218667 2.688-4.608 4.181333-6.826667l-49.621333-36.181333a21.376 21.376 0 0 1 25.173333-34.56l45.098667 32.938667a257.706667 257.706667 0 0 0 1.365333-206.634667 21.290667 21.290667 0 1 1 39.082667-17.066667 300.16 300.16 0 0 1-5.333334 249.301334l64.853334 47.317333a21.376 21.376 0 0 1 4.693333 29.824 21.504 21.504 0 0 1-29.866667 4.650667L757.140053 593.792c-1.408 2.090667-2.517333 4.266667-3.968 6.4-95.573333 133.973333-282.453333 165.333333-416.597333 69.674667a298.581333 298.581333 0 0 1-72.96-74.666667L204.649387 638.250667a21.461333 21.461333 0 0 1-29.866667-4.693334 21.376 21.376 0 0 1 4.693333-29.781333l62.336-45.482667a300.373333 300.373333 0 0 1-26.368-82.218666 296.704 296.704 0 0 1 51.456-222.72 299.733333 299.733333 0 0 1 223.146667-124.074667v-70.058667a21.333333 21.333333 0 0 1 42.666667 0v179.541334a21.333333 21.333333 0 0 1-21.333334 21.333333M829.588053 252.586667h-213.333333a21.333333 21.333333 0 0 1 0-42.666667h213.333333a21.333333 21.333333 0 0 1 0 42.666667M829.588053 167.253333h-213.333333a21.333333 21.333333 0 0 1 0-42.666666h213.333333a21.333333 21.333333 0 0 1 0 42.666666M829.588053 80.085333h-218.666666a21.333333 21.333333 0 0 1 0-42.666666h218.666666a21.333333 21.333333 0 0 1 0 42.666666"  horiz-adv-x="1024" />

    
    <glyph glyph-name="RectangleCopy206" unicode="&#60181;" d="M760.789333 725.333333C811.818667 725.333333 853.333333 683.818667 853.333333 632.832v-314.154667a21.333333 21.333333 0 1 0-42.666666 0V632.832A49.92 49.92 0 0 1 760.789333 682.666667h-78.592v-63.530667c0-11.818667-9.514667-21.333333-21.333333-21.333333h-298.666667a21.333333 21.333333 0 0 0-21.333333 21.333333V682.666667H263.168A49.92 49.92 0 0 1 213.333333 632.832v-497.621333A49.92 49.92 0 0 1 263.168 85.333333h269.696a21.333333 21.333333 0 1 0 0-42.666666H263.168A92.629333 92.629333 0 0 0 170.666667 135.210667V632.832C170.666667 683.818667 212.181333 725.333333 263.168 725.333333h497.621333zM383.530667 640.469333h256V682.666667h-256v-42.197334zM831.573333 258.261333h-218.709333a21.333333 21.333333 0 0 1 0-42.666666h218.666667a21.333333 21.333333 0 0 1 0 42.666666M831.573333 172.928h-218.709333a21.333333 21.333333 0 0 1 0-42.666667h218.666667a21.333333 21.333333 0 0 1 0 42.666667M831.573333 85.76h-218.709333a21.333333 21.333333 0 0 1 0-42.666667h218.666667a21.333333 21.333333 0 0 1 0 42.666667M467.072 449.322667a21.333333 21.333333 0 0 1-30.165333 0l-88.021334-88.021334a21.205333 21.205333 0 0 1-4.608-23.168 20.992 20.992 0 0 1 20.565334-17.706666h295.125333a21.333333 21.333333 0 1 1 0 42.666666H411.050667l56.021333 56.064a21.333333 21.333333 0 0 1 0 30.165334"  horiz-adv-x="1024" />

    
    <glyph glyph-name="RectangleCopy207" unicode="&#60182;" d="M518.357333 341.333333c90.24 0 170.453333 52.266667 204.373334 133.077334a21.504 21.504 0 0 1 1.578666 7.552A21.290667 21.290667 0 0 1 704.853333 512h-213.333333a21.333333 21.333333 0 0 1 0-42.666667h180.778667c-31.445333-52.48-89.472-85.333333-154.026667-85.333333-98.048 0-177.92 76.544-177.92 170.666667 0 34.048 10.453333 66.901333 30.208 95.061333C403.754667 697.088 459.008 725.333333 518.357333 725.333333c59.306667 0 114.56-28.245333 147.712-75.562666 6.954667-9.856 12.757333-20.352 17.322667-31.232a21.333333 21.333333 0 0 1 39.338667 16.512 209.152 209.152 0 0 1-21.76 39.253333C659.882667 732.970667 591.616 768 518.4 768c-73.258667 0-141.568-35.072-182.741333-93.781333A207.658667 207.658667 0 0 1 297.770667 554.666667c0-117.632 98.944-213.333333 220.586666-213.333334M662.229333 42.666667h-386.133333C217.941333 42.666667 170.666667 90.496 170.666667 149.333333S217.941333 256 276.096 256h341.674667a21.333333 21.333333 0 0 1 0 42.666667H276.096C194.432 298.666667 128 231.68 128 149.333333S194.432 0 276.096 0h386.133333a21.333333 21.333333 0 0 1 0 42.666667M870.229333 128.426667h-83.114666v30.72h83.114666a21.333333 21.333333 0 1 1 0 42.666666h-83.114666v8.362667l72.192 68.138667a21.333333 21.333333 0 1 1-29.269334 30.976l-65.92-62.208-65.92 62.208a21.333333 21.333333 0 1 1-29.269333-30.976l75.52-71.296v-5.205334h-87.552a21.333333 21.333333 0 0 1 0-42.666666h87.552v-30.72h-87.552a21.333333 21.333333 0 0 1 0-42.666667h87.552v-60.885333a21.333333 21.333333 0 1 1 42.666667 0V85.76h83.114666a21.333333 21.333333 0 0 1 0 42.666667"  horiz-adv-x="1024" />

    
    <glyph glyph-name="RectangleCopy208" unicode="&#60183;" d="M570.752 85.333333H263.168A49.92 49.92 0 0 0 213.333333 135.210667V632.789333A49.92 49.92 0 0 0 263.168 682.666667h411.050667a49.92 49.92 0 0 0 49.877333-49.877334v-185.258666a21.333333 21.333333 0 1 1 42.666667 0V632.789333A92.629333 92.629333 0 0 1 674.218667 725.333333H263.168A92.629333 92.629333 0 0 1 170.666667 632.789333v-497.578666C170.666667 84.181333 212.181333 42.666667 263.168 42.666667h307.584a21.333333 21.333333 0 0 1 0 42.666666M341.418667 596.906667a21.333333 21.333333 0 0 1-21.333334-21.333334v-87.466666c0-81.706667 66.986667-148.138667 149.333334-148.138667s149.333333 66.432 149.333333 148.096V575.573333a21.333333 21.333333 0 0 1-42.666667 0v-87.466666c0-58.112-47.829333-105.386667-106.666666-105.386667s-106.666667 47.274667-106.666667 105.386667V575.573333a21.333333 21.333333 0 0 1-21.333333 21.333334M746.24 178.090667a21.333333 21.333333 0 0 1 0 42.666666H675.413333v3.754667l62.890667 59.392a21.333333 21.333333 0 0 1-29.312 31.018667l-56.405333-53.333334L596.096 314.965333a21.333333 21.333333 0 0 1-29.226667-31.018666L632.746667 221.738667v-0.981334H557.994667a21.333333 21.333333 0 0 1 0-42.666666H632.746667V156.032H557.994667a21.333333 21.333333 0 1 1 0-42.666667H632.746667v-51.2a21.333333 21.333333 0 1 1 42.666666 0V113.365333h70.826667a21.333333 21.333333 0 0 1 0 42.666667H675.413333v22.058667h70.826667zM832.085333 636.885333a21.333333 21.333333 0 0 1-21.333333-21.333333v-467.541333a21.333333 21.333333 0 0 1 42.666667 0V615.552a21.333333 21.333333 0 0 1-21.333334 21.333333"  horiz-adv-x="1024" />

    
    <glyph glyph-name="RectangleCopy209" unicode="&#60184;" d="M469.504 171.818667a21.333333 21.333333 0 0 1 21.333333 21.333333v93.738667h124.885334a21.333333 21.333333 0 0 1 0 42.666666h-124.885334v60.032h124.885334a21.333333 21.333333 0 1 1 0 42.666667h-124.885334v23.936l103.68 97.877333a21.248 21.248 0 0 1 0.853334 30.122667 21.248 21.248 0 0 1-30.08 0.896l-98.133334-92.586667-98.133333 92.586667a21.290667 21.290667 0 1 1-29.269333-31.018667l108.373333-102.272v-19.541333H317.098667a21.333333 21.333333 0 1 1 0-42.666667h131.114666v-60.032H317.013333a21.290667 21.290667 0 1 1 0-42.666666h131.114667v-93.738667a21.333333 21.333333 0 0 1 21.333333-21.333333M745.258667 725.333333H276.352A105.856 105.856 0 0 1 170.666667 619.562667v-468.864a105.813333 105.813333 0 0 1 105.728-105.685334h298.453333a20.181333 20.181333 0 0 1 0 40.32H276.394667a65.408 65.408 0 0 0-65.365334 65.365334V619.605333c0 36.053333 29.312 65.408 65.365334 65.408h468.864c36.096 0 65.408-29.354667 65.408-65.450666v-295.253334a20.181333 20.181333 0 0 1 40.362666 0v295.253334a105.898667 105.898667 0 0 1-105.813333 105.813333M650.069333 176.128a64.64 64.64 0 1 0 64.597334-64.597333 64.64 64.64 0 0 0-64.597334 64.597333z m155.605334-56.021333a106.24 106.24 0 0 1 16.213333 56.021333 107.392 107.392 0 0 1-107.221333 107.264 107.392 107.392 0 0 1-107.264-107.264 107.392 107.392 0 0 1 107.264-107.264 106.24 106.24 0 0 1 61.866666 19.968l36.736-40.277333a21.162667 21.162667 0 0 1 30.122667-1.365334 21.290667 21.290667 0 0 1 1.365333 30.122667l-39.082666 42.794667z"  horiz-adv-x="1024" />

    
    <glyph glyph-name="RectangleCopy210" unicode="&#60185;" d="M377.685333 630.741333c0 28.586667 23.296 51.925333 51.925334 51.925334h166.4c28.672 0 51.968-23.296 51.968-51.925334v-29.696H377.685333V630.741333z m312.746667-569.216H227.541333A56.96 56.96 0 0 0 170.666667 118.442667v190.549333h321.237333v-24.32a21.290667 21.290667 0 1 1 42.666667 0v24.32h85.973333a21.333333 21.333333 0 1 1 0 42.666667H534.570667v38.997333a21.333333 21.333333 0 0 1-42.666667 0v-38.997333H170.624V501.461333c0 31.36 25.557333 56.874667 56.917333 56.874667h568.874667c31.402667 0 56.917333-25.514667 56.917333-56.874667v-111.104a21.333333 21.333333 0 0 1 42.666667 0V501.461333a99.669333 99.669333 0 0 1-99.584 99.541334h-105.813333V630.741333A94.72 94.72 0 0 1 596.053333 725.333333h-166.4A94.677333 94.677333 0 0 1 335.018667 630.741333v-29.696h-107.52A99.669333 99.669333 0 0 1 128 501.461333v-383.061333a99.669333 99.669333 0 0 1 99.541333-99.584h462.933334a21.333333 21.333333 0 0 1 0 42.666667zM875.52 142.122667H792.490667v30.677333H875.52a21.333333 21.333333 0 1 1 0 42.666667H792.405333v8.362666L864.597333 291.968A21.333333 21.333333 0 1 1 835.413333 322.944L769.450667 260.736 703.530667 322.944a21.248 21.248 0 1 1-29.312-30.976l75.52-71.296v-5.205333H662.229333a21.333333 21.333333 0 0 1 0-42.666667h87.509334v-30.72H662.229333a21.333333 21.333333 0 0 1 0-42.666667h87.509334V38.528a21.333333 21.333333 0 1 1 42.666666 0V99.456h83.157334a21.333333 21.333333 0 0 1 0 42.666667"  horiz-adv-x="1024" />

    
    <glyph glyph-name="RectangleCopy211" unicode="&#60186;" d="M518.357333 341.333333c90.24 0 170.453333 52.266667 204.373334 133.077334a21.333333 21.333333 0 1 1-39.296 16.512C656.128 425.941333 591.36 384 518.314667 384c-90.453333 0-164.522667 65.365333-175.616 149.333333h211.072a21.333333 21.333333 0 0 1 0 42.666667H342.058667a165.674667 165.674667 0 0 0 28.501333 73.728C403.754667 697.088 459.008 725.333333 518.357333 725.333333c59.306667 0 114.56-28.245333 147.712-75.562666 6.912-9.813333 12.757333-20.352 17.322667-31.274667a21.376 21.376 0 0 1 39.338667 16.597333 212.352 212.352 0 0 1-21.76 39.210667C659.882667 732.970667 591.616 768 518.4 768c-73.258667 0-141.568-35.072-182.741333-93.781333A207.445333 207.445333 0 0 1 297.770667 554.666667c0-117.632 98.944-213.333333 220.586666-213.333334M660.437333 42.666667H276.096C217.941333 42.666667 170.666667 90.496 170.666667 149.333333S217.941333 256 276.096 256h343.466667a21.333333 21.333333 0 0 1 0 42.666667h-343.466667C194.432 298.666667 128 231.68 128 149.333333S194.432 0 276.096 0h384.341333a21.333333 21.333333 0 0 1 0 42.666667M873.770667 128.426667h-83.114667v30.72h83.114667a21.333333 21.333333 0 1 1 0 42.666666h-83.114667v8.362667l72.192 68.138667a21.333333 21.333333 0 1 1-29.269333 30.976l-65.92-62.208-65.92 62.208a21.333333 21.333333 0 1 1-29.269334-30.976l75.52-71.296v-5.205334h-87.552a21.333333 21.333333 0 0 1 0-42.666666h87.552v-30.72h-87.552a21.333333 21.333333 0 0 1 0-42.666667h87.552v-60.885333a21.333333 21.333333 0 0 1 42.666667 0V85.76h83.114667a21.333333 21.333333 0 0 1 0 42.666667"  horiz-adv-x="1024" />

    
    <glyph glyph-name="RectangleCopy212" unicode="&#60187;" d="M850.519893 404.053333h-298.154666V684.074667c153.130667-9.642667 279.04-127.701333 298.154666-279.936m-318.336-40.32h338.005334c7.082667 0 13.013333 3.84 16.597333 9.386666a19.882667 19.882667 0 0 1 5.973333 15.488c-12.714667 188.757333-171.136 336.64-360.576 336.64a20.181333 20.181333 0 0 1-20.181333-20.096c0-0.298667 0.170667-0.554667 0.170667-0.853333 0-0.298667-0.170667-0.554667-0.170667-0.853333v-317.909334c0-0.256 0.170667-0.512 0.170667-0.853333 0-0.256-0.170667-0.512-0.170667-0.853333 0-11.093333 9.045333-20.096 20.181333-20.096M588.93056 47.573333a328.832 328.832 0 0 0-56.746667-4.906666c-177.066667 0-321.152 144.085333-321.152 321.152a319.445333 319.445333 0 0 0 226.688 307.072 20.181333 20.181333 0 0 1-11.818666 38.528A359.68 359.68 0 0 1 170.669227 363.818667c0-199.338667 162.133333-361.514667 361.514666-361.514667 21.290667 0 42.752 1.92 63.744 5.632a20.096 20.096 0 1 1-6.997333 39.68M765.101227 191.402667a64 64 0 1 1 0.042666-128.042667 64 64 0 0 1-0.042666 128M765.101227 20.693333a106.752 106.752 0 0 0-106.666667 106.666667c0 58.88 47.786667 106.666667 106.666667 106.666667 58.837333 0 106.666667-47.786667 106.666666-106.666667 0-58.837333-47.829333-106.666667-106.666666-106.666667m0 256c-82.346667 0-149.333333-66.986667-149.333334-149.333333s66.986667-149.333333 149.333334-149.333333 149.333333 66.986667 149.333333 149.333333-66.986667 149.333333-149.333333 149.333333"  horiz-adv-x="1024" />

    
    <glyph glyph-name="RectangleCopy213" unicode="&#60188;" d="M735.658667 725.333333H288.298667A117.76 117.76 0 0 1 170.666667 607.701333v-447.402666a117.76 117.76 0 0 1 117.632-117.632H405.333333a21.333333 21.333333 0 0 1 0 42.666666H288.298667A75.050667 75.050667 0 0 0 213.333333 160.298667V607.701333c0 41.344 33.621333 74.965333 74.965334 74.965334h447.36c41.386667 0 75.008-33.621333 75.008-74.965334v-289.493333a21.333333 21.333333 0 1 1 42.666666 0V607.701333A117.76 117.76 0 0 1 735.658667 725.333333M516.266667 624.384l-133.461334-128.853333L332.8 547.370667a21.333333 21.333333 0 0 1-30.72-29.653334L366.933333 450.56a21.205333 21.205333 0 0 1 30.165334-0.512l148.821333 143.616a21.333333 21.333333 0 1 1-29.653333 30.677333M704 510.208a21.333333 21.333333 0 0 1 0 42.666667h-126.250667a21.333333 21.333333 0 0 1 0-42.666667H704zM321.749333 172.458667h170.666667a21.333333 21.333333 0 0 1 0 42.666666h-170.666667a21.333333 21.333333 0 0 1 0-42.666666M300.416 360.874667a21.333333 21.333333 0 0 1 21.333333-21.333334H704a21.333333 21.333333 0 0 1 0 42.666667H321.749333a21.333333 21.333333 0 0 1-21.333333-21.333333M844.885333 237.525333c-1.706667 1.408-3.541333 2.176-5.418666 2.986667a20.821333 20.821333 0 0 1-10.282667 3.029333h-65.109333a21.333333 21.333333 0 0 1 0-42.666666h21.589333l-70.613333-83.029334-100.821334 80.469334a21.333333 21.333333 0 0 1-29.013333-2.218667l-108.501333-117.888a21.418667 21.418667 0 0 1 15.701333-35.797333c5.76 0 11.52 2.304 15.701333 6.869333l95.061334 103.296 101.418666-80.981333c9.045333-7.168 22.101333-5.973333 29.525334 2.858666L810.666667 164.394667v-10.112a21.333333 21.333333 0 1 1 42.666666 0v65.066666a20.949333 20.949333 0 0 1-2.773333 9.984 21.034667 21.034667 0 0 1-5.674667 8.192"  horiz-adv-x="1024" />

    
    <glyph glyph-name="RectangleCopy214" unicode="&#60189;" d="M518.4 341.333333c90.154667 0 170.368 52.266667 204.373333 133.077334a21.333333 21.333333 0 0 1-39.338666 16.512C656.128 425.941333 591.36 384 518.4 384c-98.090667 0-177.92 76.544-177.92 170.666667 0 34.090667 10.410667 66.944 30.08 95.061333C403.712 697.045333 459.008 725.333333 518.4 725.333333s114.56-28.245333 147.712-75.562666c6.912-9.856 12.8-20.394667 17.322667-31.274667a21.504 21.504 0 0 1 27.946666-11.392 21.418667 21.418667 0 0 1 11.392 27.989333 214.229333 214.229333 0 0 1-21.76 39.210667C659.84 732.970667 591.573333 768 518.4 768c-73.258667 0-141.525333-35.029333-182.741333-93.781333A207.445333 207.445333 0 0 1 297.813333 554.666667c0-117.632 98.986667-213.333333 220.586667-213.333334M823.722667 75.178667A104.234667 104.234667 0 0 0 747.946667 42.666667H276.053333C218.026667 42.666667 170.666667 90.453333 170.666667 149.333333 170.666667 208.170667 217.984 256 276.053333 256h386.133334a21.333333 21.333333 0 0 1 0 42.666667H276.053333C194.474667 298.666667 128 231.68 128 149.333333S194.432 0 276.053333 0h471.893334c40.533333 0 78.378667 16.213333 106.624 45.653333a21.376 21.376 0 0 1-0.682667 30.208 21.418667 21.418667 0 0 1-30.165333-0.682666M851.2 170.666667h-105.386667v85.333333h2.090667c50.901333 0 93.525333-36.693333 103.296-85.333333m-103.296 128h-23.424a21.333333 21.333333 0 0 1-21.333333-21.333334c0-1.877333 0.597333-3.584 1.066666-5.333333-0.469333-1.749333-1.066667-3.456-1.066666-5.333333v-115.541334c0-8.832 5.376-16.426667 13.013333-19.669333a20.736 20.736 0 0 1 10.965333-3.456h140.416c1.28 0 2.346667 0.512 3.584 0.725333 1.194667-0.213333 2.304-0.725333 3.541334-0.725333a21.333333 21.333333 0 0 1 21.333333 21.333333c0 82.346667-66.432 149.333333-148.096 149.333334M511.146667 61.056l42.666666 52.693333-41.386666 120.917334-43.946667-120.917334z"  horiz-adv-x="1024" />

    
    <glyph glyph-name="RectangleCopy215" unicode="&#60190;" d="M410.03008 712.618667a20.053333 20.053333 0 0 1 13.354667 25.173333 19.925333 19.925333 0 0 1-25.173334 13.312A380.8 380.8 0 0 1 128.003413 385.152a381.610667 381.610667 0 0 1 266.453334-364.8 20.224 20.224 0 0 1 12.245333 38.442667 341.333333 341.333333 0 0 0-238.421333 326.4A340.821333 340.821333 0 0 0 410.03008 712.576M850.435413 426.666667H530.947413V726.698667c164.394667-9.728 299.648-136.533333 319.488-300.032m42.325334-15.232C879.192747 611.328 711.427413 768 510.808747 768A20.138667 20.138667 0 0 1 490.67008 747.818667C490.67008 747.52 490.840747 747.264 490.840747 746.965333 490.840747 746.581333 490.67008 746.325333 490.67008 745.984V408.32c0-0.298667 0.170667-0.554667 0.170667-0.853333 0-0.341333-0.170667-0.597333-0.170667-0.938667 0-11.093333 9.002667-20.138667 20.138667-20.138667H869.976747a19.84 19.84 0 0 1 16.682666 9.514667 19.882667 19.882667 0 0 1 6.144 15.573333M843.69408 213.034667c-1.536 1.322667-3.328 2.005333-5.077333 2.816a20.864 20.864 0 0 1-10.624 3.242666H762.883413a21.333333 21.333333 0 0 1 0-42.666666h21.632l-70.698666-83.072-100.778667 80.469333a21.290667 21.290667 0 0 1-29.013333-2.218667l-108.458667-117.888a21.333333 21.333333 0 0 1 31.402667-28.928l94.976 103.296 101.418666-80.981333a21.333333 21.333333 0 0 1 29.568 2.858667l76.544 89.941333v-10.069333a21.290667 21.290667 0 1 1 42.666667 0v65.066666a20.650667 20.650667 0 0 1-2.773333 9.941334 20.736 20.736 0 0 1-5.674667 8.192"  horiz-adv-x="1024" />

    
    </font>
</defs>
</svg>
